<?xml version="1.0" encoding="UTF-8" standalone="no"?><svg xmlns="http://www.w3.org/2000/svg" xmlns:xlink="http://www.w3.org/1999/xlink" clip-rule="evenodd" fill="#000000" fill-rule="evenodd" height="28" preserveAspectRatio="xMidYMid meet" stroke-linejoin="round" stroke-miterlimit="2" version="1" viewBox="4.9 -3.2 169.6 27.6" width="170" zoomAndPan="magnify"><g><g><g><g id="change1_2"><path d="M661.831,632.988C661.231,632.754 659.983,632.855 659.557,632.969C659.202,633.064 659.029,633.32 658.989,633.385C658.88,633.564 658.55,635.252 659.702,635.252C660.263,635.252 660.826,635.246 661.388,635.232C661.542,635.374 661.731,635.436 661.926,635.394C662.045,635.367 662.154,635.305 662.247,635.211C664.858,635.13 667.477,634.932 670.095,634.671C675.279,634.155 680.46,633.393 685.569,632.81C697.729,631.421 709.889,630.084 722.06,628.859C734.218,627.635 746.387,626.522 758.579,625.582L768.039,624.877L775.767,624.319L788.522,623.437C789.249,623.386 792.528,623.209 794.016,623.073C796.259,622.869 797.641,620.676 793.097,620.676C792.902,620.676 792.723,620.776 792.588,620.946C791.002,621.057 788.993,621.167 788.444,621.206L775.69,622.088L767.959,622.646L758.493,623.352C746.293,624.293 734.115,625.406 721.948,626.631C709.772,627.857 697.607,629.194 685.442,630.583C680.339,631.166 675.163,631.928 669.984,632.443C667.264,632.714 664.543,632.917 661.831,632.988Z" fill="#810947" transform="matrix(1.11962 .07213 -.05098 .79137 -696.726 -541.883)"/></g><g id="change1_1"><path d="M661.83,632.988C661.266,632.744 660.01,632.854 659.588,632.966C659.255,633.055 659.088,633.307 659.052,633.368C658.955,633.532 658.631,635.252 659.694,635.252C660.267,635.252 660.84,635.246 661.413,635.231C661.559,635.378 661.74,635.44 661.925,635.389C662.029,635.361 662.124,635.299 662.206,635.212C664.823,635.132 667.449,634.934 670.073,634.672C675.259,634.156 680.441,633.394 685.551,632.81C697.713,631.421 709.875,630.084 722.048,628.859C734.206,627.635 746.374,626.523 758.565,625.582L768.025,624.877L775.753,624.319L788.509,623.437C789.235,623.386 792.512,623.209 794,623.073C796.101,622.882 797.362,620.676 793.105,620.676C792.927,620.676 792.762,620.775 792.637,620.944C791.046,621.055 789.011,621.167 788.458,621.206L775.704,622.088L767.973,622.646L758.508,623.352C746.31,624.293 734.134,625.405 721.969,626.63C709.792,627.856 697.626,629.194 685.459,630.583C680.354,631.166 675.176,631.928 669.995,632.444C667.271,632.715 664.545,632.918 661.83,632.988Z" fill="#810947" transform="matrix(1.21877 .06529 -.03384 .79238 -776.364 -531.204)"/></g></g></g></g></svg>