<?xml version="1.0" encoding="UTF-8" standalone="no"?><svg xmlns="http://www.w3.org/2000/svg" xmlns:xlink="http://www.w3.org/1999/xlink" fill="#000000" height="63.9" preserveAspectRatio="xMidYMid meet" version="1" viewBox="0.0 -0.0 222.3 63.9" width="222.3" zoomAndPan="magnify"><g id="change1_1"><path d="M220.7,25.5h-0.1l-5.9-0.7c-2.1-0.2-4.3-0.4-6.4-0.4 s-4.2,0-6.3,0h-1.3c1.1,1.3,2.2,2.7,3.2,4.1c1.7,2.3,3.2,4.7,4.4,7.2c0.2,0.5,1.8,4,0.2,4h-0.1c-3.8-0.5-7.5-0.8-11.3-1.3 s-7.6-0.9-11.4-1.3c-7.7-0.9-15.4-1.8-23.1-2.7c-3.8-0.5-7.7-0.8-11.5-1.1c-2-0.1-4-0.2-6.1-0.3s-4-0.3-5.9-0.5h-0.1l7.8,1 c3.9,0.5,7.8,1.1,11.7,1.7s7.9,1,11.9,1.5c2,0.2,3.9,0.5,5.9,0.8s3.9,0.6,5.9,0.8c6.6,1,13.2,1.8,19.8,2.6c0.7,0.1,1.3,0.4,1.8,0.8 c0.9,0.6,1.7,1.3,2.5,2c2.9,2.7,5.5,5.7,7.8,9c1.7,2.3,3.2,4.7,4.4,7.2c0.2,0.5,1.8,4,0.2,4h-0.2l-8.7-1.1c-4-0.5-8-1.1-12-1.6 c-1.9-0.3-3.8-0.5-5.7-0.8s-4-0.6-6-0.8c-4-0.5-8-1-11.9-1.5s-8-1.2-12-1.7l-12.1-1.5c-4-0.5-8-1-12-1.5c-4.2-0.5-8.4-0.8-12.7-1.1 c-2-0.1-4.1-0.4-6.1-0.6s-4-0.6-6-0.7c-4.1-0.3-8.2-0.5-12.3-0.7c-2-0.1-4.1-0.1-6.1-0.2c-2.2-0.1-4.4-0.3-6.6-0.4 c-4-0.2-8.1-0.3-12.1-0.6s-8-0.5-12-0.6l-6.2-0.2c-2-0.1-4-0.2-6-0.3c-3.9-0.2-7.8-0.4-11.8-0.5c-2.1-0.1-4.1-0.1-6.2-0.2 c-0.9,0-1.9-0.1-2.8-0.1h-1c-0.6,0-1.2,0-1.8-0.1c-0.7-0.1-1.3-0.4-1.8-0.8c-0.9-0.6-1.7-1.3-2.5-2c-2.9-2.7-5.5-5.7-7.8-9 c-1.7-2.2-3.2-4.7-4.4-7.2c-0.2-0.5-1.9-4.2-0.1-4l0,0c0.6,0,1.2,0,1.8,0h1c1,0,2,0.1,3,0.1h0.1l-0.2-0.3c-0.6-0.1-1.2-0.4-1.7-0.8 c-0.9-0.6-1.7-1.3-2.5-2c-2.9-2.7-5.5-5.7-7.8-9C3.6,9.9,2.1,7.5,0.9,5C0.5,4.2,0.2,3.3,0,2.5V1.6C0,1.3,0.3,1,0.7,1 c0,0,0.1,0,0.1,0C2.9,0.8,5,0.7,7.2,0.8c1.1,0,2.2,0.1,3.3,0c1.9,0,3.8,0.1,5.7,0.1C18,1,20.1,1,22,0.9s3.9-0.4,5.8-0.5s4-0.2,6-0.2 s4,0.1,6,0.1c1.1,0,2.1,0,3.2,0s1.9,0,2.9,0c2.1,0,4.2,0.1,6.4,0s4-0.2,6-0.2c4.3-0.1,8.6,0,12.9,0.1c2.5,0.1,5,0.1,7.6,0 c1.7,0,3.5,0,5.2,0c2.2,0,4.3,0.1,6.4,0.3s4.4,0.2,6.6,0.3c4.3,0.2,8.6,0.5,12.9,0.6s8.6-0.2,12.9-0.2c8.8,0,17.7-0.3,26.5,0 c4.6,0.1,9.2,0.2,13.9,0.2c4.3,0,8.6,0,12.9,0c2.3,0,4.7,0.1,7,0.1c2.2,0,4.3,0,6.5,0c2.1,0,4.2,0,6.2,0.2c2.1,0.2,4.3,0.5,6.4,0.7 l1.8,0.2c0.7,0.1,1.3,0.4,1.8,0.8c0.9,0.6,1.7,1.3,2.5,2c2.9,2.7,5.5,5.7,7.8,9c1.7,2.3,3.2,4.7,4.4,7.2 C220.7,22,222.3,25.5,220.7,25.5z" fill="#ff66c4" opacity="0.7"/></g></svg>