<?xml version="1.0" encoding="UTF-8" standalone="no"?><svg xmlns="http://www.w3.org/2000/svg" xmlns:xlink="http://www.w3.org/1999/xlink" fill="#000000" height="90.3" preserveAspectRatio="xMidYMid meet" version="1" viewBox="4.9 2.8 86.3 90.3" width="86.3" zoomAndPan="magnify"><g fill="#810947" id="change1_1"><path d="M14.9583,67.3173c0.3188,0.0661,0.4953-0.1724,0.5696-0.521c0.1021-0.4792,0.2687-0.9764,0.1394-1.4925 c-0.4361-1.7078-0.5094-3.4485-0.9676-5.156c-0.6956-2.6041-1.4185-5.2189-1.7718-7.8807 c-0.1593-1.1756-0.514-2.3044-0.6778-3.4832c-0.169-1.1499-0.6562-2.3097-0.6895-3.5099 c-0.0371-1.2624-0.5845-2.3925-0.6924-3.6399c-0.061-1.0368-0.4323-2.0764-0.4713-3.1086 c-0.0165-0.9502-0.0999-1.9124-0.2527-2.8037c-0.2977-1.9357-0.1834-3.8671-0.3448-5.7523 c-0.0461-0.758,0.4155-1.5891-0.2048-2.2881C9.5671,27.6487,9.584,27.508,9.62,27.4624c0.6077-0.7402-0.04-1.7403,0.422-2.5011 c0.0996-0.1599,0.0765-0.4611,0.0369-0.6777c-0.0886-0.5398,0.0581-1.0869,0.2037-1.5427 c0.4244-1.6521,1.1969-3.3361,1.6606-5.1332c0.1026-0.362,0.2635-0.7403,0.5894-0.9532c0.5585-0.3454,0.8171-0.8344,0.93-1.4654 c0.0377-0.1755,0.0889-0.4082,0.207-0.496c0.6067-0.4537,0.9845-0.956,1.0391-1.7047c0.0025-0.0475,0.0769-0.1366,0.1195-0.1424 c0.7721-0.1312,1.0121-0.7353,1.3721-1.2828c0.0751-0.1192,0.1627-0.2291,0.2727-0.301c1.0195-0.778,2.0049-1.3458,2.7959-2.2028 c0.0672-0.0801,0.1424-0.1526,0.2354-0.11c0.6747,0.449,1.1023-0.0638,1.6292-0.1136c0.2589-0.0429,0.5634,0.1954,0.8073-0.2933 c0.0934-0.1561,0.6304,0.1492,0.9183,0.2359c0.301,0.0699,0.61,0.2511,0.9261,0.287c0.3302,0.0557,0.6578,0.0797,0.8647,0.1283 c0.4717,0.1103,0.9859,0.3633,1.2321,0.8812c0.5653,0.1059,0.565,0.7531,0.8727,1.1348c0.2118,0.2703,0.2368,0.3582,0.5741,0.134 c0.1108-0.074,0.2127-0.1829,0.3315-0.2173c0.3281-0.0976,0.6035,0.0956,0.6475,0.3952c0.0535,0.3353-0.1511,0.3137-0.4393,0.2232 c-0.3079-0.092-0.5557,0.1985-0.5649,0.3824c-0.0264,0.307-0.0599,0.6294,0.3009,0.8493c0.0734,0.0443,0.1806,0.0589,0.2387,0.116 c0.0261,0.0257-0.074,0.0471-0.1434,0.0647c-0.5259,0.1429-0.4406,0.4345-0.2994,0.8014c0.1724,0.4385,0.5189,0.9899-0.1395,1.3736 c0.0098,0.7418-0.5309,1.4565-0.2719,2.3026c0.0984,0.3155,0.1294,0.5599-0.2283,0.7467 c-0.1991,0.1037-0.2564,0.3709-0.3339,0.6002c-0.3021,0.9247-0.5047,1.9329-0.9838,2.9048c-0.0973,0.1942,0.049,0.381,0.1832,0.499 l0.0717-0.0306l-0.0648,0.0529c-0.3967,0.3251-0.5739,0.8119-0.7341,1.3061c-0.1012,0.3133-0.1424,0.6278,0.2123,0.6133 c0.3546-0.0145,0.5572,0.134,0.6087,0.5689c0.0469,0.3958,0.1519,0.7707,0.1886,1.1676c0.0169,0.1835-0.1754,0.1337-0.2277,0.1752 c-0.4004,0.3137-0.5192,0.1192-0.5929-0.2861c-0.0586-0.3223,0.0723-0.7562-0.2383-0.953 c-0.2873,0.3434,0.1037,0.856-0.3506,1.1292l-0.1348,0.2115c-0.0803-0.171,0.0853-0.1481,0.1311-0.2193 c-0.0561-0.2208-0.1748-0.3716-0.3503-0.1184c-0.5594,0.7958-0.7289,2.2366-0.3634,2.9634 c0.1629,0.3212,0.3229,0.0546,0.428-0.2062l-0.0106-0.0832l0.0354,0.0667c0.1971,0.2868,0.0963,0.7983,0.4588,0.9761 c0.3171,0.1553,0.043,0.4289-0.085,0.576c-0.2933,0.3426-0.1947-0.0579-0.2305-0.1917c-0.0501-0.1811-0.1923-0.2606-0.3012-0.1179 c-0.3838,0.51-0.4246,0.109-0.4995-0.1865c-0.0556-0.2195-0.039-0.5327-0.3288-0.4533c-0.2767,0.0761-0.1989,0.3675-0.2715,0.588 c-0.2026,0.6056,0.1531,1.1079-0.086,1.7142c-0.2548,0.6459-0.288-0.0007-0.4276,0.0011 c-0.0169-0.0314-0.0295-0.0691-0.0527-0.0909c0,0-0.0614,0.0297-0.0621,0.043c-0.0018,0.0384,0.0123,0.0754,0.0203,0.1129 c-0.0828,0.282-0.1614,0.5561-0.0323,0.8197c0.1317,0.2701-0.0681,0.4446-0.2147,0.6272l-0.2407-0.0968 c-0.0202,0.063-0.0713,0.1535-0.0551,0.1843c0.0773,0.1498,0.1967,0.0963,0.3141,0.0103c0.3335,0.1177,0.6292,0.1027,0.4427,0.8579 c-0.1492,0.6031-0.0716,1.4031,0.3976,1.9142c-0.2302,0.1769-0.4109,0.316-0.5918,0.4553 c-0.018-0.0316-0.0315-0.0701-0.0561-0.0902c-0.009-0.0075-0.0627,0.0303-0.0637,0.0449c-0.0025,0.039,0.0129,0.0763,0.021,0.1145 c-0.0189,0.0728-0.021,0.143-0.0056,0.2111l0.0089,0.0867l-0.0281-0.0743l-0.3772,0.0795c0.0464-0.4585-0.0442-0.959-0.4426-0.8178 c-0.4804,0.1706-0.2001,0.6787-0.1677,1.0372c0.0098,0.1064,0.0993,0.1886,0.1522,0.2817 c0.0199,0.0253,0.0381,0.0728,0.0603,0.0716c0.0555-0.002,0.1128-0.0261,0.1692-0.0414c-0.0349,0.6909-0.0862,1.3763-0.578,1.9297 l-0.0409-0.0917l-0.0512,0.0366c0.0089,0.0282,0.0206,0.0643,0.0314,0.0981c0.1175,0.4303,0.0558,0.9943,0.4938,1.1837 l0.0702-0.0313l-0.0633,0.0507c-0.1489,0.36,0.0507,0.6976-0.0497,1.0505c-0.2021-0.0628-0.3798-0.1485-0.5694-0.1683 c-0.1804-0.0185-0.3754,0.122-0.3517,0.3611c0.0803,0.8002-0.3389,1.6843,0.0112,2.4326c-0.0914,0.0535-0.1118,0.1125-0.049,0.1524 c0.0183,0.0118,0.061-0.0261,0.0927-0.041c-0.1494,0.2024,0.5862,0.8373-0.292,0.6984c-0.2467-0.0391-0.3743,0.2203-0.333,0.4963 c0.0465,0.3078,0.1219,0.7808,0.3709,0.7328c0.7002-0.1353,0.2402,0.4333,0.2732,0.6984l0.0147,0.0744l-0.0389-0.0571 c-0.2241-0.1406-0.4359-0.3163-0.6767-0.4096c-0.1681-0.065-0.3466,0.1056-0.4037,0.3207c-0.0654,0.2463,0.12,0.2059,0.2402,0.2107 c0.2217,0.0086,0.228,0.1944,0.233,0.4147c0.0205,0.4067,0.0427,0.8505,0.0666,1.3212c-0.5442-0.0387-0.9828-0.1034-0.9898,0.8777 c-0.0037,0.5154-0.5247,1.0476-0.0766,1.6135c0.2041,0.2582-0.2946,0.8843,0.0611,1.2274l-0.2799,0.1269l0.1755,0.2454 c-0.0445,0.1509-0.1051,0.2866-0.2408,0.347l-0.1042-0.106l0.0025,0.1769c-0.4355,0.3578-0.6459,0.7101-0.6731,1.4365 c-0.0232,0.646-0.1812,1.4694-0.6359,2.0901l-0.0423,0.1143l0.0726-0.0329c0.3533,0.0966,0.4069,0.1632,0.237,0.4011 c-0.1993,0.28-0.1746,0.5185-0.1357,0.7953c0.0549,0.39,0.0317,0.7935-0.0583,1.2014l0.0335,0.2224 c-0.1559,0.0103-0.0191-0.1515-0.0611-0.2082l-0.4662-0.4052c-0.3561,0.8421-0.4385,1.01-0.2637,1.1196 c0.4773,0.2997-0.5616,0.4615-0.0917,0.8334c0.3391,0.2695-0.4735,0.3113-0.3653,0.6567c0.2514,0.8073-0.2357,1.5168-0.4232,2.2631 c-0.0388,0.1583-0.0575,0.327,0.0822,0.4215c0.3629,0.2455,0.3027,0.2644,0.32,0.5619c0.0295,0.5168-0.2559,0.9368-0.374,1.4108 c0.8333-0.6232,1.0244-1.5051,0.9497-2.4849l-0.0151-0.0862l0.0304,0.077c0.3018-0.0365,0.5317-0.2226,0.6526-0.5847 c0.3868-1.1561,1.0015-2.1941,1.4918-3.292c-0.0169-0.0636-0.0383-0.1251-0.0476-0.1914 c-0.0031-0.0201,0.0274-0.0525,0.0427-0.0793l0.0095,0.2681c0.362-0.1755,0.3096-0.5001,0.323-0.8464 c0.0323-0.7878,0.1871-1.6342,0.7398-2.1408c0.4777-0.4362,0.3369-1.0521,0.6621-1.4756l-0.2386-0.1715l-0.0673,0.0342 l0.0574-0.0604c0.1618-0.2366,0.521-0.2308,0.4641-0.7504c-0.051-0.4685,0.0548-0.9958,0.5588-1.2575 c0.0958-0.0497,0.2358-0.3428,0.2067-0.4173c-0.2762-0.7142,0.7758-1.177,0.4215-1.8827c0.4424-0.1404,0.1335-0.6522,0.2008-0.6843 c0.5775-0.2768,0.1834-0.5693,0.1456-0.8674c-0.0222-0.1748,0.1326-0.3888,0.2291-0.4019c0.618-0.0835,0.5677-0.7626,0.6385-1.1472 c0.0853-0.4648-0.0599-0.902,0.4115-1.2866c0.1931-0.1577,0.2781-0.6425-0.1278-0.7459c-0.05,0.0557-0.0763,0.1226-0.0789,0.2002 c0.0412,0.1055,0.0201,0.1907-0.0797,0.2489l-0.0746,0.0448l0.0659-0.0607l0.0404-0.1088l0.0252-0.1129 c-0.0381-0.105-0.0128-0.1875,0.081-0.246c0.2122-0.2374,0.6447-0.3345,0.6546-0.6367c0.0335-1.0085,0.6148-1.8784,0.6902-2.8532 c0.0098-0.1254-0.1177-0.1636-0.2239-0.1625l-0.0743,0.022l0.0673-0.0434c0.6533-0.6029,0.6532-0.6025,0.3588-1.2232 l-0.0111-0.0744l0.0365,0.0567c0.4843-0.0494,0.4857-0.0551,0.1978-0.7082l-0.0091-0.0839l0.0303,0.0698 c0.3164-0.1531,0.7005-0.2129,0.9356-0.4767c0.5964-0.6686-0.2916-0.426-0.2831-0.7384c0.0099-0.3564-0.0897-0.7343,0.1743-1.0731 c0.1269-0.1628,0.223-0.3411,0.2532-0.5573l-0.0316-0.228c0.1656-0.0033,0.0204,0.1522,0.0531,0.217 c0.3434-0.3291,0.6871-0.6578,1.006-0.963c-0.0196-0.2453-0.1114-0.3384-0.2509-0.3457c-0.2041-0.0107-0.2802-0.1262-0.2242-0.3766 c0.7583-0.1335,0.6969-0.1232,0.6875-1.0387c-0.0033-0.6536-0.0484-1.286-0.0925-1.9268c-0.0147-0.2126-0.1303-0.4798,0.1548-0.649 c0.251,0.0522,0.3378,0.3423,0.522,0.4871c0.1728,0.1358,0.4315-0.0193,0.3946-0.1614c-0.1073-0.4166-0.042-0.7336,0.2482-1.0397 c-0.3371-0.2692-0.0904-0.805-0.2538-1.1973c-0.232-0.5569-0.0304-0.9098,0.5494-1.1933c0.2652-0.1305,0.4534-0.2302,0.4208-0.6022 c-0.0619-0.6904,0.0661-1.3941,0.2747-2.0695c0.1709-0.5675,0.5926-1.0483,0.5834-1.6833 c-0.001-0.0784,0.0353-0.2328,0.0353-0.2328c0.6127-0.0906,0.4386-0.6716,0.4724-1.083c0.253,0.0472,0.2192,0.4903,0.4878,0.2876 c0.0864-0.1628,0.0536-0.2875-0.006-0.368c-0.3055-0.4116,0.1647-1.0345-0.0615-1.5164c-0.0474-0.1008,0.4083,0.0183,0.629-0.2738 c0.2331-0.3157,0.3929-0.5745,0.2113-0.9231c-0.0555,0.0536-0.108,0.1172-0.1672,0.158c-0.1174,0.0821-0.2482,0.1836-0.3521,0.0663 c-0.0271-0.0306-0.0187-0.1631,0.0123-0.213c0.0934-0.1488,0.21-0.2227,0.3385-0.1319c0.0504,0.0355,0.1092,0.0554,0.1641,0.0823 c0.6269-0.5126,0.4947-1.2492,0.4059-1.8441c-0.1863-1.2189-0.2444-1.1682,0.6439-1.8362c0.0983-0.0767,0.1996-0.1355,0.227-0.2806 c0.1384-0.7737,0.3797-1.6342,0.0786-2.4027c-0.0894-0.2168-0.2643-0.3779-0.1965-0.6401 c0.2149-0.7012-0.0011-1.5768-0.2653-2.3132c-0.2645-0.7667-0.5949-1.4695-0.6722-2.3117c-0.0365-0.4903-0.6414-1.0613-1.136-1.14 c-0.2309-0.038-0.4143,0.0624-0.6911-0.2161c0.3771-0.5827,0.3826-0.6345-0.4706-1.0158c-0.082-0.0353-0.1574-0.0287-0.2396-0.0367 c0.0364-0.0971,0.0973-0.1823,0.1019-0.2963c0.0176-0.3936-0.179-0.7157-0.703-0.737c0.1097,0.2204,0.0628,0.3713-0.0027,0.513 c-0.0086,0.0536-0.0091,0.1124-0.0315,0.1565c-0.0077,0.0152-0.068-0.0053-0.1045-0.009l-0.1022-0.0196l0.0965,0.0053 c0.0554-0.0332,0.0948-0.0796,0.1169-0.1401l-0.0137-0.5181c-0.4265-0.609-1.0262-1.1241-1.7594-0.9663 c0.3393,0.2006,0.6726,0.4175,0.9638,0.6677c0.1851,0.1627,0.2539,0.3345,0.0396,0.3713c-0.1685,0.0313-0.3751-0.0371-0.502-0.2167 c-0.1919-0.2627-0.3353-0.557-0.539-0.8147c-0.2048-0.0942-0.4023-0.2025-0.6155-0.2797l-0.1203-0.0108l0.1062-0.0096 c0.0771-0.4783-0.568-0.5156-0.8805-0.4864c-0.6995,0.0025,0.1131,0.4417-0.1978,0.609c-0.1579-0.1137-0.3465-0.2054-0.4487-0.3243 c-0.3994-0.4417-0.8353-0.9965-1.7033-0.5767c-0.0568,0.028-0.219,0.0174-0.2903-0.0136c-1.0093-0.4485-1.804-0.0717-2.5141,0.3961 c-0.3093,0.1767-0.7063,0.7371-0.8892-0.0313c-0.0612-0.2553-0.4221-0.0205-0.536,0.1484 c-0.6828,0.9046-0.668,0.8724-1.7734,0.8862c-0.3744,0.0289-0.6891-0.1032-1.1573,0.1854 c-0.5017,0.3099-0.3485,0.6839-0.5604,1.0311c-0.4157,0.0201-0.6761-0.2891-1.1439,0.1427 c-0.5922,0.4961-1.182,0.9353-1.7509,1.4552c-0.5471,0.5402-0.6357,1.3225-1.3308,1.735l0.1276,0.2666 c0.1919-0.0812,0.3842-0.1626,0.6173-0.2615c-0.2151,0.4038-0.4146,0.356-0.6198,0.2751c-0.036,0.806-0.6639,1.039-1.1749,1.4253 c-0.4702-0.0561-0.5622,0.1741-0.3993,0.575c-0.0346,0.0633-0.0547,0.1282-0.0599,0.1938l-0.0349,0.2383 c-0.1577-0.032,0.028-0.1607,0.0066-0.2316c-0.1509-0.0873-0.3338-0.1487-0.4892,0.097c-0.6794,1.0607-1.1034,2.2285-1.7806,3.287 c-0.1413,0.2176-0.2957,0.6132-0.0994,0.8383c0.2041,0.2379,0.0331,0.4089-0.1174,0.6339 c-0.1635,0.2435-0.5291,0.2626-0.5375,0.6596c-0.0067,0.3588,0.375,0.3203,0.4963,0.5442 c-0.2206,0.1861-0.3581,0.331-0.5065,0.4726c0.0095-0.168,0.079-0.3986-0.0692-0.4531c-0.1977-0.0727-0.183,0.2016-0.2464,0.3417 c-0.2152,0.201-0.3136,0.4451-0.1398,0.6593c0.0807,0.0995,0.2396,0.0969,0.362,0.1434c0.1276,0.0481,0.2683,0.1129,0.2322,0.3195 c-0.0782,0.4472-0.2526-0.0761-0.3581,0.1216c-0.158,0.2961-0.2834,0.5337-0.46,0.1184c-0.3811,0.335-0.472,0.7862-0.2327,1.1514 c0.2796,0.4394,0.1928,0.8921,0.0281,1.4032c-0.2848-0.1364,0.0575-0.7571-0.3315-0.834 c-0.0371,0.1522-0.0693,0.2849-0.1008,0.4143c-0.1179,0.5607-0.3486,1.3536-0.1645,1.5845 c0.4886,0.638-0.2491,0.8322-0.2104,1.3391c0.0659,0.9073-0.3141,1.9406,0.2448,2.7601l0.0299,0.076l-0.0486-0.0535 c-0.2317,0.0614-0.2817,0.2764-0.3255,0.5614c-0.073,0.5191,0.1393,1.0307-0.0169,1.5459 c-0.1466,0.4847,0.013,0.8094,0.3424,1.0717c0.3123,0.2436,0.3007,0.2819,0.3122,0.9208c-0.1515-0.111-0.1836-0.4801-0.4406-0.3738 c-0.0098,0.5603,0.0014,0.5526,0.5466,1.3063c0.0711,0.0983,0.268,0.6189-0.1085,0.5818c-0.394-0.0398-0.3799,0.2672-0.3563,0.5423 c0.0726,0.5739,0.091,1.1781,0.3889,1.682c0.2004-0.3641,0.1283-0.8104,0.1924-1.2147c-0.0557,0.4131,0.4522,0.9845-0.1784,1.2346 c-0.029,0.4677,0.0121,0.933,0.0625,1.4035c0.1687,1.4151,0.6454,2.7757,0.7695,4.1598c0.0916,1.2988,0.5718,2.4834,0.7163,3.7461 c0.0133,0.1199,0.0695,0.2506,0.1325,0.3506c0.097,0.1539,0.1938,0.2018,0.3097,0.0167c0.0301-0.0487-0.2421-0.758,0.1499-0.1594 c0.1143,0.1742,0.2439,0.5766-0.1427,0.6659c-0.2014,0.0466-0.2224,0.2654-0.1094,0.4875c0.334,0.6564,0.4209,1.3977,0.4958,2.0953 c0.0707,0.6853,0.7847,1.1806,0.4561,1.9613c-0.0593,0.1422,0.1585,0.2938,0.3378,0.3878c0.6752,0.353,0.804,0.8123,0.552,1.7118 c-0.0374-0.1615-0.0659-0.3263-0.114-0.4839c-0.0464-0.1505-0.1082-0.3381-0.2676-0.2277 c-0.0883,0.0608-0.068,0.2078-0.0133,0.3302c0.085,0.1901,0.1868,0.3603,0.3556,0.446c0.2761,0.6083,0.6985,1.1522,0.6614,1.8951 L9.939,53.8062c0,0-0.023,0.0571-0.0347,0.088l0.2577,0.0892c0.6976,1.6349,1.2646,3.3463,1.6822,5.0653 c0.6269,2.6194,1.7929,4.9992,2.4067,7.6105C14.3641,67.1264,14.6498,67.2532,14.9583,67.3173z M24.4393,27.8827 c-0.1519-0.0523-0.2009-0.153-0.1276-0.2713c0.0844-0.1362,0.2135-0.2374,0.3308-0.1119c0.0582,0.0624,0.0828,0.1706,0.1226,0.2584 C24.6425,27.805,24.5198,27.852,24.4393,27.8827z M16.7802,62.5201l-0.0945,0.01c-0.0121-0.0326-0.0417-0.0703-0.0335-0.0971 c0.0348-0.1148,0.088-0.1272,0.1311-0.0309C16.7962,62.4306,16.782,62.4802,16.7802,62.5201z M17.5401,60.7795 c-0.076,0.0926-0.1484,0.181-0.231,0.2816c-0.0143,0.0152-0.0799-0.0121-0.0799-0.0121c0.0285-0.2139,0.195-0.2051,0.3015-0.2963 l0.0623-0.023L17.5401,60.7795z M17.9772,59.4649l-0.0394-0.0617l0.0698,0.0003L17.9772,59.4649z M19.0668,52.8494l0.0349-0.0653 l0.0172,0.0501L19.0668,52.8494z M21.2647,42.3365l0.0406,0.0194l-0.0479,0.061L21.2647,42.3365z M21.0638,43.1372l-0.0375-0.0252 l0.0491-0.0546L21.0638,43.1372z M21.2241,44.2626c-0.0189-0.0155-0.0137-0.0706-0.0196-0.1075 c0.0243-0.0183,0.054-0.0549,0.0721-0.0503c0.0258,0.007,0.061,0.0412,0.0611,0.0694 C21.3387,44.2817,21.2914,44.3183,21.2241,44.2626z M21.656,37.3793c-0.0466-0.0189-0.0853-0.0506-0.1166-0.0954l0.1829-0.2924 L21.656,37.3793z M22.735,46.1933l-0.0476-0.0515l0.067-0.0122L22.735,46.1933z M23.085,32.6971 c-0.0217,0.071-0.0714,0.1341-0.1089,0.2007l-0.0018-0.1939l0.1132-0.2002C23.0879,32.5684,23.1027,32.6377,23.085,32.6971z M23.4281,43.5939l-0.0405-0.0197l0.0475-0.061L23.4281,43.5939z M23.5931,30.924c0.2394,0.3025,0.0536,0.629,0.0592,0.8954 l0.0092,0.079l-0.0335-0.0625C23.5652,31.5822,23.5254,31.3223,23.5931,30.924z M24.0468,42.877 c-0.0252-0.0159-0.0695-0.0261-0.0717-0.049c-0.0069-0.0731,0.0398-0.0923,0.1122-0.0403c0.0222,0.016,0.0338,0.0522,0.0503,0.0793 L24.0468,42.877z M23.7118,33.5954c-0.2285-0.0706-0.2735-0.3236-0.1698-0.5883c0.0952-0.2434,0.278-0.2425,0.4434-0.1792 c0.2026,0.0773,0.306,0.2464,0.2988,0.4942C24.1088,33.6186,23.9016,33.6542,23.7118,33.5954z M24.5981,36.7108l-0.1404,0.1989 c-0.0645-0.1586,0.093-0.1467,0.1294-0.2278l0.0626-0.0247L24.5981,36.7108z M24.5966,31.7913 c-0.0246-0.0162-0.0683-0.0265-0.0701-0.0491c-0.0049-0.07,0.0422-0.0895,0.1135-0.0409c0.0216,0.0146,0.031,0.0522,0.0461,0.0797 L24.5966,31.7913z M26.0557,21.7003c0.0203,0.0096,0.0236,0.0603,0.0349,0.092c-0.0177,0.0268-0.04,0.0766-0.0526,0.0755 c-0.0254-0.0022-0.0588-0.0247-0.0658-0.0519C25.9461,21.7126,25.9809,21.6654,26.0557,21.7003z M26.1113,36.3181 c-0.0662,0.074-0.0938,0.0416-0.0623-0.0816c0.0088-0.0339,0.0409-0.0628,0.0626-0.094l0.0382,0.0614 C26.1372,36.244,26.1333,36.2938,26.1113,36.3181z M26.2479,23.6812c-0.3206,0.2247-0.3143-0.2839-0.5412-0.2977 c-0.1019-0.006-0.172-0.0842-0.1688-0.2277c0.07-0.1582,0.172-0.104,0.2633-0.1056c0.2538-0.0043,0.5795-0.1429,0.596,0.3295 C26.4003,23.4699,26.3193,23.6313,26.2479,23.6812z M26.6624,35.4718l-0.1523-0.1122c0.0969-0.1437,0.161-0.0298,0.2196,0.0194 c0.0444,0.0366,0.0648,0.1125,0.0951,0.1725L26.6624,35.4718z M27.5968,15.7292c0.0849,0.0507,0.1763,0.0927,0.2517,0.1573 c0.0479,0.0401,0.1075,0.1467,0.0917,0.1708c-0.0967,0.1467-0.1607,0.0213-0.2095-0.049c-0.0556-0.0831-0.095-0.1821-0.1434-0.2721 l-0.0381-0.0684L27.5968,15.7292z M27.4742,19.664l0.0425,0.0603l-0.0701,0.0009L27.4742,19.664z M27.5588,22.4839 c-0.0209-0.0613-0.0749-0.1403-0.0565-0.1804c0.0666-0.1453,0.1627-0.1156,0.2217-0.031c0.0304,0.0434,0.0132,0.1384,0.0175,0.21 L27.5588,22.4839z M27.5397,18.456c0.2143,0.2949,0.3798,0.4549,0.4283,0.8631C27.7037,19.1109,27.5228,18.9713,27.5397,18.456z M27.9182,20.5123c-0.0126-0.0782-0.0241-0.1497-0.0342-0.2121c-0.0105-0.1004,0.0353-0.1626,0.0956-0.1226 c0.0356,0.0239,0.0507,0.1186,0.0419,0.1807C28.0142,20.408,27.9582,20.4564,27.9182,20.5123z M32.7678,13.4274 c0.039,0.0093,0.0905,0.1488,0.0857,0.224c-0.0064,0.1393-0.0481,0.2745-0.0753,0.4102l0.1076,0.2325 c-0.1497,0.0822-0.0595-0.1699-0.1287-0.2068c-0.0352-0.1303-0.0856-0.2557-0.1011-0.3896 C32.6445,13.5796,32.6232,13.3928,32.7678,13.4274z M32.2658,10.6721c0.0134-0.0624,0.1026,0.0184,0.1255,0.1564 c0.0149,0.1274,0.0327,0.2794,0.0525,0.4475c-0.0889-0.0818-0.1908-0.1375-0.1959-0.1838 C32.2324,10.9498,32.2362,10.7945,32.2658,10.6721z M31.7637,9.598c0.0178,0.0402,0.0167,0.0899,0.0241,0.1351 c-0.0234-0.0134-0.0545-0.0192-0.0684-0.042c-0.0239-0.0389-0.0497-0.0924-0.0522-0.1328C31.6598,9.4419,31.7,9.4546,31.7637,9.598 z M30.3309,16.6412c-0.0201,0.0175-0.055,0.0044-0.0831,0.005c0.0013-0.0326-0.0065-0.0738,0.0068-0.0956 c0.0168-0.0276,0.0559-0.0606,0.0771-0.0554C30.4074,16.5139,30.4074,16.5745,30.3309,16.6412z M29.8063,7.2307l0.0232,0.082 l0.367,0.48L30.51,7.9455l0.355,0.1564l0.0835,0.0505l-0.0829-0.0247L30.51,7.9775l-0.3124-0.143 c-0.2428-0.1035-0.3749-0.2705-0.4012-0.5331L29.8063,7.2307z M29.6073,13.328l-0.0033,0.0506l-0.0567-0.0306L29.6073,13.328z M29.084,27.4907l-0.0219-0.0821l0.0308,0.0763l0.0236,0.0829L29.084,27.4907z M29.2092,16.2112 c0.0275,0.0478,0.0241,0.1359,0.011,0.2016c-0.0206,0.1033-0.0737,0.1209-0.1033,0.0426 c-0.0226-0.0607-0.0209-0.1354-0.0301-0.2037C29.1127,16.1646,29.1656,16.1385,29.2092,16.2112z M29.1116,26.3016 c0.007,0.0142-0.0259,0.0621-0.0403,0.0944c-0.0321,0.0086-0.0682,0.0298-0.0947,0.0217c-0.0138-0.0043-0.0246-0.0688-0.0131-0.092 C29.0119,26.228,29.0695,26.2188,29.1116,26.3016z M28.3586,15.9094c-0.0142-0.0853,0.0295-0.135,0.085-0.0931 c0.0356,0.0272,0.0511,0.1099,0.0493,0.1678c-0.0011,0.0383-0.049,0.0764-0.0828,0.1202 C28.3907,16.0312,28.3726,15.9619,28.3586,15.9094z M28.4848,19.811c-0.0163,0.0054-0.0391-0.041-0.0589-0.0636 c0.0065-0.0341,0.0056-0.0748,0.0222-0.0996c0.0091-0.0131,0.0602-0.0112,0.072,0.0055 C28.5701,19.7237,28.5556,19.7872,28.4848,19.811z M28.3557,13.5549c0.0279-0.0535,0.081-0.1099,0.135-0.1297 c0.1577-0.0578,0.2316,0.0434,0.2577,0.1989l0.0434,0.3112c0.0455,0.0896,0.1076,0.177,0.1206,0.2756 c0.0151,0.0994-0.0159,0.2623-0.1233,0.2267c-0.1028-0.0331-0.0079-0.178-0.0058-0.2747c0.0026-0.0689-0.0154-0.1368-0.0273-0.2043 l-0.2705-0.1061C28.3406,13.7995,28.2686,13.7124,28.3557,13.5549z M24.7194,7.172c0.0531,0.0367,0.1562,0.09,0.1487,0.1055 c-0.0656,0.1367-0.2024,0.1578-0.3429,0.1243c-0.0558-0.0133-0.1485-0.0834-0.1418-0.1053 C24.4305,7.1429,24.5754,7.1529,24.7194,7.172z M21.123,6.4339l-0.0011,0.0434l-0.0673-0.0187L21.123,6.4339z M19.3146,8.3971 l-0.0038,0.0651L19.273,8.4129L19.3146,8.3971z M16.8679,10.0694l0.0018,0.067l-0.018,0.0673l-0.0082-0.0681L16.8679,10.0694z M15.9014,8.4822l-0.0502,0.0569l-0.0215-0.038L15.9014,8.4822z M13.4595,12.798c0.0134-0.0049,0.036,0.0338,0.0542,0.0522 c-0.007,0.0327-0.0066,0.0698-0.0243,0.0956c-0.0083,0.0123-0.0645,0.0147-0.0774,0.0007 C13.3573,12.8872,13.3763,12.8294,13.4595,12.798z M5.6418,26.1282l0.0173,0.0798l-0.043-0.004L5.6418,26.1282z M5.71,29.563 c-0.0463,0.086-0.1172,0.086-0.1443,0.0008c-0.0376-0.1181-0.0402-0.2439,0.0713-0.3162c0.0398,0.0291,0.1194,0.0547,0.1262,0.0993 C5.7737,29.4126,5.7431,29.5021,5.71,29.563z M5.8185,28.7079c-0.0515-0.0089-0.1079-0.0726-0.1436-0.1311 c-0.0498-0.0823-0.0243-0.1432,0.0517-0.1566c0.0486,0.0455,0.1071,0.0803,0.1434,0.1389 C5.9201,28.6405,5.8932,28.7209,5.8185,28.7079z M5.8668,24.3608c-0.0762,0.0453-0.1062,0.0021-0.0713-0.1066 c0.0081-0.0254,0.0515-0.0342,0.0787-0.0508c0.0179,0.0224,0.0533,0.051,0.0498,0.0657C5.915,24.304,5.8915,24.3463,5.8668,24.3608 z M6.4731,24.8058c0.0135,0.0255,0.0433,0.0536,0.0412,0.0809c-0.0085,0.1106-0.05,0.1294-0.1026,0.0472 c-0.0162-0.0255-0.0172-0.068-0.025-0.1029L6.4731,24.8058z M6.4774,36.6421c-0.0347,0.0621-0.1189,0.1601-0.1189,0.1601 C6.1171,36.5646,6.208,36.23,6.2127,35.9361C6.2217,36.2241,6.6799,36.278,6.4774,36.6421z M6.6504,37.9188l-0.0239-0.0793 l0.0464,0.0076L6.6504,37.9188z M6.8192,39.347c-0.0232-0.0772-0.054-0.1549-0.0592-0.2334 c-0.0035-0.0511,0.0308-0.103,0.0537-0.1706c0.026,0.1,0.0584,0.1783,0.0623,0.2569C6.8779,39.2492,6.8394,39.298,6.8192,39.347z M7.2155,40.9192l0.1181-0.1651c0.0831,0.1612-0.0917,0.1037-0.0938,0.1928c0.0374,0.2342,0.075,0.4682,0.1227,0.7671 C6.9963,41.4483,7.1169,41.1814,7.2155,40.9192z M7.616,43.2348l-0.0463,0.2359c-0.1395-0.1171,0.0074-0.1726,0.0149-0.2581 l-0.1022-0.5034l-0.0448-0.0698l0.0574,0.0464C7.6789,42.8354,7.6944,43.0238,7.616,43.2348z M8.2812,46.4672 c-0.0195-0.0341-0.0494-0.0662-0.0564-0.1022c-0.0227-0.1209,0.0088-0.1587,0.0714-0.0931 c0.0202,0.0208,0.018,0.0776,0.0261,0.1181L8.2812,46.4672z M8.4845,47.6164c-0.0088-0.0355,0.004-0.0769,0.007-0.1156 c0.0209,0.0134,0.0511,0.0211,0.0603,0.0416c0.0155,0.0353,0.0304,0.0843,0.0234,0.1174 C8.5546,47.7578,8.516,47.742,8.4845,47.6164z M8.0939,15.2103c0.1759-0.3561,0.2066-0.8312,0.562-0.7544 c0.0662,0.0139,0.0866,0.1827,0.1286,0.2793L8.0939,15.2103z M9.0003,48.7311c-0.0587-0.0282-0.1129-0.0752-0.1692-0.1139 c0.0457-0.0332,0.0906-0.0945,0.1377-0.0903c0.0522,0.0047,0.1382,0.059,0.1521,0.1097 C9.1461,48.7271,9.0841,48.7713,9.0003,48.7311z"/><path d="M29.9378,26.8226c-0.1432-0.0295-0.2382,0.1254-0.2333,0.3074c0.0063,0.2298-0.0033,0.4783,0.2214,0.5523 c0.1544-0.0448,0.234-0.1688,0.2569-0.3376C30.2185,27.0811,30.1504,26.8664,29.9378,26.8226z"/><path d="M14.9766,68.1524c0.2789-0.03799,0.3508-0.3752,0.2285-0.8174c-0.1266,0.1999-0.1993,0.2937-0.2502,0.3997 C14.8763,67.8987,14.6666,68.1944,14.9766,68.1524z"/><path d="M21.9775,34.3413c0.0408-0.1728,0.0334-0.3403-0.0967-0.4025c-0.1652-0.079-0.2311,0.1067-0.2788,0.2625 c-0.0492,0.1608-0.0709,0.3346,0.0825,0.3934C21.8441,34.6558,21.9179,34.5014,21.9775,34.3413z"/><path d="M30.7332,25.2268c-0.0952-0.0283-0.1912,0.023-0.2387,0.1522c-0.0586,0.1588-0.0694,0.3117,0.081,0.3643 c0.0977,0.0341,0.1812-0.0374,0.2349-0.1566C30.8579,25.4327,30.8946,25.2748,30.7332,25.2268z"/><path d="M21.3863,35.4136c0.0131,0.061,0.0649,0.1034,0.0995,0.1541l0.1159-0.1732 c-0.0353-0.0471-0.063-0.1251-0.1075-0.1339C21.4226,35.2466,21.3679,35.326,21.3863,35.4136z"/><path d="M29.2666,29.3766c-0.0288,0.0133-0.0626,0.0434-0.0772,0.0754c-0.0387,0.0843-0.0137,0.14,0.0621,0.1604 c0.0489-0.047,0.1287-0.0899,0.1392-0.142C29.4094,29.377,29.3474,29.3391,29.2666,29.3766z"/><path d="M14.6954,69.0754c0.063-0.0688,0.0599-0.1381,0.0004-0.1936c-0.0292,0.0007-0.0688-0.0138-0.0857,0.0044 c-0.0607,0.0662-0.0589,0.1395,0.0036,0.1906C14.6324,69.0922,14.6792,69.093,14.6954,69.0754z"/><path d="M11.0067,9.7139c-0.0021,0.0124,0.0478,0.018,0.0734,0.0268l0.0545-0.111 C11.075,9.5651,11.0286,9.5938,11.0067,9.7139z"/><path d="M27.8038,34.1043c0.026-0.0079,0.0606-0.0063,0.0753-0.0259c0.0167-0.023,0.0297-0.0745,0.0205-0.0959 c-0.0305-0.0717-0.0761-0.0593-0.1103,0.031C27.7801,34.0381,27.7982,34.0737,27.8038,34.1043z"/><path d="M28.995,30.3677c-0.016,0.0187-0.0205,0.0668-0.0142,0.0932c0.0043,0.0177,0.0372,0.0208,0.0571,0.0307 c0.0186-0.0258,0.0505-0.0522,0.0528-0.0773C29.101,30.3072,29.0625,30.2882,28.995,30.3677z"/><path d="M20.842,37.1966l-0.0482,0.0754l0.061,0.0574c0.0162-0.0257,0.0493-0.0629,0.045-0.0746 C20.8906,37.2287,20.8622,37.2153,20.842,37.1966z"/><path d="M33.5994,60.1594c-0.0257,0.4532-0.0939,0.9319-0.251,1.4043l0.0014,0.2607 c-0.1602,0.0077,0.0029-0.1774-0.0313-0.2451c-0.1359-0.1615-0.2719-0.3233-0.4125-0.4907 c-0.4901,0.9814-0.6008,1.1783-0.4378,1.3096c0.4452,0.3578-0.6381,0.5372-0.2097,0.9772 c0.3106,0.3151-0.5281,0.3634-0.4651,0.7683c0.1596,0.9431-0.3828,1.7911-0.6309,2.678c-0.0512,0.1879-0.0826,0.3868,0.0536,0.49 c0.3536,0.2675,0.2908,0.2923,0.2882,0.6366c-0.008,0.59499-0.3273,1.09769-0.4459,1.6636 c0.8361-0.8009,1.1292-1.7949,1.1068-2.9369l-0.0094-0.0997l0.0255,0.0885c0.3097-0.0535,0.5533-0.276,0.7063-0.6964 c0.4631-1.3558,1.2739-2.5199,1.9096-3.7656c-0.0081-0.0736-0.0211-0.1453-0.0213-0.2221 c-0.0002-0.0229,0.0353-0.0592,0.0541-0.0893l-0.0278,0.3085c0.3911-0.1872,0.3828-0.56,0.4451-0.9584 c0.1721-0.8919,0.4985-1.8495,1.1587-2.3783c0.571-0.4514,0.5422-1.1701,0.9644-1.6152l-0.2001-0.22l-0.0768,0.0309l0.0732-0.0615 c0.2225-0.248,0.5831-0.1971,0.6564-0.7879c0.0665-0.5329,0.3084-1.1172,0.8795-1.3406c0.1087-0.0423,0.3225-0.3518,0.3124-0.4401 c-0.1069-0.8586,1.0959-1.1937,0.9562-2.0364c0.4856-0.077,0.3321-0.7017,0.4096-0.726c0.6597-0.201,0.3562-0.5997,0.4107-0.9416 c0.0317-0.2003,0.2511-0.4097,0.3508-0.4051c0.6285,0.0241,0.8111-0.7289,1.0212-1.134c0.2482-0.4896,0.2609-1.0053,0.8626-1.3198 c0.2462-0.1283,0.5016-0.6412,0.14-0.8531c-0.0688,0.0501-0.1186,0.1177-0.1495,0.203c0.0029,0.1266-0.048,0.2152-0.1671,0.2563 l-0.0894,0.0321l0.0866-0.0517l0.0783-0.1107l0.0655-0.1189c0-0.1251,0.0546-0.2107,0.1678-0.2531 c0.294-0.2128,0.7518-0.2145,0.8693-0.546c0.4361-1.0822,1.3561-1.8679,1.8206-2.9096c0.0598-0.134-0.0482-0.2115-0.1519-0.2398 l-0.0811,0.0033l0.083-0.0286c0.8739-0.4793,0.8829-0.4663,0.8707-1.2182l0.0225-0.0825l0.0102,0.0711 c0.4946,0.0911,0.4971,0.0878,0.5094-0.6974l0.0286-0.0929l-0.0018,0.0842c0.3754-0.0689,0.7735-0.0154,1.1171-0.2247 c0.8703-0.5296-0.0923-0.5472,0.0552-0.8799c0.1721-0.3766,0.2338-0.826,0.6558-1.0936c0.202-0.1287,0.3817-0.2836,0.516-0.5003 l0.0801-0.2509c0.1611,0.0518-0.0539,0.1674-0.054,0.2465c0.4886-0.2306,0.9769-0.461,1.4301-0.675 c0.0998-0.2649,0.0569-0.3948-0.0725-0.4502c-0.1899-0.0814-0.2063-0.2295-0.0312-0.4752 c0.7905,0.1224,0.7161,0.1074,1.1644-0.8542c0.3368-0.6754,0.6233-1.349,0.9179-2.0319c0.0977-0.2266,0.1291-0.5485,0.4876-0.6186 c0.2095,0.148,0.1393,0.4823,0.2377,0.7014c0.0925,0.2054,0.4177,0.1412,0.4568-0.02c0.1163-0.472,0.3437-0.778,0.7752-0.988 c-0.1703-0.4041,0.3606-0.8528,0.425-1.317c0.092-0.6595,0.4809-0.9424,1.1824-1.0002c0.3219-0.0268,0.5527-0.0534,0.7268-0.4511 c0.3109-0.7498,0.8703-1.3762,1.4567-1.9726c0.4976-0.4938,1.1649-0.8093,1.528-1.4572c0.0451-0.0798,0.1579-0.2243,0.1689-0.2216 c0.6233,0.1732,0.8227-0.4674,1.1083-0.8576c0.2056,0.1579-0.0995,0.5769,0.2756,0.4968c0.1809-0.121,0.2271-0.2577,0.2217-0.363 c-0.0277-0.5403,0.7647-0.9272,0.8453-1.4918c0.017-0.1183,0.3555,0.2096,0.7206,0.0396c0.3852-0.1854,0.6778-0.3372,0.7356-0.7342 c-0.0813,0.0179-0.166,0.0468-0.2431,0.0521c-0.153,0.0103-0.3321,0.0382-0.3505-0.1212c-0.005-0.0419,0.0854-0.1572,0.1438-0.1853 c0.1753-0.0844,0.3226-0.0886,0.3777,0.059c0.0217,0.0583,0.0606,0.1065,0.0916,0.1591c0.8559-0.1209,1.1816-0.8088,1.4946-1.3568 c0.637-1.1075,0.5912-1.1417,1.6981-1.0329c0.125,0.0135,0.2382,0.0427,0.3574-0.0397c0.6377-0.4404,1.3896-0.7785,1.7859-1.4461 c0.1117-0.1883,0.1342-0.4325,0.3795-0.509c1.3439-0.428,2.0563-1.9278,3.4352-2.0198c0.3846-0.0198,0.7798-0.4806,0.88129-0.9116 c0.0461-0.2039-0.02779-0.4172,0.24931-0.5845c0.4303,0.5474,0.40739,0.542,0.8918-0.0107 c0.04729-0.0545,0.0631-0.1247,0.0944-0.186c0.0589,0.0825,0.1008,0.1783,0.177,0.245 c0.26649,0.2277,0.48859,0.2666,0.70119-0.0899c-0.1671-0.0743-0.244-0.1985-0.30849-0.3405 c-0.03101-0.0402-0.0695-0.078-0.08981-0.1226c-0.0071-0.0157,0.0317-0.0487,0.0503-0.0735l0.0578-0.0658l-0.0459,0.0702 c-0.002,0.063,0.0124,0.1222,0.0423,0.1776l0.3166,0.3333c0.5212,0.1046,0.8765,0.2003,1.2605-0.259 c-0.2532-0.0179-0.4962-0.0352-0.7623-0.0539c-0.1594-0.0064-0.2831-0.093-0.1989-0.2578 c0.0662-0.1276,0.2175-0.2266,0.3741-0.1419c0.2291,0.1117,0.4197,0.2813,0.6069,0.43l0.4334,0.0247l0.077-0.0241l-0.0653,0.0396 c0.0248,0.4755,0.37151,0.3148,0.6013,0.2799c0.48-0.0557-0.0695-0.4311,0.1438-0.6233c0.1218,0.1066,0.2618,0.1854,0.327,0.297 c0.2624,0.4623,0.3565,0.8714,1.0009,0.687c0.0423-0.0096,0.1345,0.0359,0.1507,0.0867c0.2595,0.6432,0.7284,0.564,1.2602,0.8219 c0.205,0.0904,0.8297,0.2376,0.0851,0.5437c-0.2407,0.0997,0.0116,0.2331,0.1265,0.3067c0.7579,0.3876,0.7953,0.5473,0.3896,1.2888 c-0.1543,0.2688-0.428,0.394-0.45271,0.8021c-0.05769,0.4481,0.34261,0.5963,0.3909,0.9645 c-0.3028,0.2566-0.6969,0.1521-0.80199,0.692c-0.15501,0.6666-0.59171,1.2427-0.9174,1.8884 c-0.3307,0.649-0.3064,1.4146-0.9685,1.9685l0.1531,0.2594c0.1883-0.1191,0.3767-0.2384,0.6053-0.3831 c-0.1794,0.4648-0.3941,0.4515-0.6064,0.3975c-0.0156,0.8443-0.688,1.1778-1.2048,1.6212 c-0.46889-0.0279-0.5873,0.1996-0.445,0.6271c-0.0405,0.0682-0.0662,0.1378-0.0768,0.2087l-0.056,0.257 c-0.1587-0.0338,0.0426-0.1738,0.0263-0.2496c-0.1483-0.0919-0.3306-0.1565-0.5071,0.1041 c-0.7873,1.1058-1.4812,2.2828-2.4408,3.2778c-0.1971,0.2041-0.455,0.5898-0.3381,0.8648c0.1301,0.2973-0.1095,0.4323-0.343,0.624 c-0.2551,0.2096-0.6197,0.1279-0.7759,0.5323c-0.1426,0.3677,0.2409,0.4391,0.2704,0.7093 c-0.2837,0.1355-0.487,0.2322-0.6899,0.3292c0.08221-0.1669,0.2486-0.3776,0.1276-0.4792 c-0.1612-0.1356-0.2622,0.1428-0.3827,0.2623c-0.2913,0.1298-0.4855,0.3374-0.4159,0.6165 c0.0325,0.1295,0.1826,0.1835,0.2771,0.2744c0.0986,0.0948,0.2023,0.2104,0.0732,0.413c-0.2793,0.4382-0.201-0.1703-0.3895-0.0038 c-0.2852,0.246-0.5394,0.4022-0.485-0.0596c-0.5287,0.1618-0.8345,0.538-0.8143,0.9973c0.0246,0.5604-0.3343,0.9284-0.7741,1.3187 c-0.1618-0.2752,0.4935-0.6683,0.19521-0.93c-0.118,0.1179-0.2209,0.2207-0.3214,0.3216c-0.3956,0.4498-1.1063,1.0216-1.1182,1.332 c-0.0505,0.8465-0.7879,0.5732-1.10889,1.0302c-0.5941,0.8358-1.6939,1.4025-1.92741,2.4746l-0.0405,0.0828l0.0089-0.0775 c-0.2164-0.1156-0.4165,0.0264-0.6866,0.2154c-0.4901,0.3428-0.7826,0.8914-1.3245,1.1685 c-0.5075,0.2591-0.6758,0.6249-0.6916,1.0824c-0.0166,0.4249-0.0556,0.4514-0.64,0.9143c0.0097-0.1986,0.3295-0.486,0.0721-0.6114 c-0.521,0.3896-0.5006,0.3868-0.8699,1.3613c-0.0481,0.1269-0.4152,0.6596-0.6001,0.3258c-0.1938-0.349-0.4655-0.1217-0.7028,0.091 c-0.5041,0.444-1.0465,0.8794-1.3791,1.4513c0.4643-0.0645,0.8465-0.4311,1.2659-0.654c-0.4187,0.2369-0.6906,1.0513-1.2776,0.6783 c-0.4694,0.2784-0.8892,0.6201-1.3246,0.9612c-1.299,1.0367-2.4165,2.2969-3.7922,3.1932 c-1.2635,0.8498-2.3048,1.9235-3.571,2.7343c-0.1196,0.0768-0.2337,0.1994-0.313,0.3112c-0.122,0.1731-0.134,0.2892,0.1054,0.2966 c0.0627,0.0021,0.6976-0.6343,0.2263,0.0531c-0.1372,0.2003-0.509,0.5397-0.7534,0.2271 c-0.1274-0.1629-0.3657-0.0674-0.5561,0.1547c-0.5718,0.6458-1.3332,1.1026-2.0476,1.5257 c-0.7014,0.4111-0.9809,1.336-1.9386,1.4029c-0.1743,0.012-0.2633,0.2909-0.3033,0.5063c-0.151,0.8097-0.6073,1.1593-1.6696,1.344 l0.488-0.3384c0.1485-0.1153,0.331-0.264,0.1574-0.3633c-0.0949-0.0544-0.2479,0.034-0.3625,0.1441 c-0.1783,0.1713-0.329,0.349-0.3662,0.5509c-0.5679,0.5528-1.0219,1.217-1.8493,1.5212l0.0214-0.2871 c0,0-0.07,0.0043-0.1074,0.0072l-0.0151,0.288c-1.5663,1.4244-3.2723,2.7512-5.0424,3.922 c-2.6902,1.7917-4.9739,3.9626-7.6025,5.7858c-0.4716,0.3273-0.5112,0.6567-0.4731,0.9774 c0.0392,0.3313,0.3604,0.3857,0.7632,0.2937c0.5545-0.1267,1.1474-0.1988,1.6596-0.5595c1.7037-1.1954,3.5835-2.0519,5.3218-3.2516 c2.6492-1.8372,5.3198-3.71609,8.148-5.319c1.2438-0.72,2.3708-1.612,3.6164-2.3554c1.2062-0.7437,2.2975-1.8224,3.6025-2.4869 c1.3671-0.7199,2.3685-1.8948,3.6816-2.6971c1.0861-0.6877,2.0329-1.6671,3.1184-2.3477c1.0089-0.6172,1.9635-1.3668,2.8272-2.1009 c1.8724-1.591,3.8835-2.9935,5.6481-4.6912c0.6931-0.6909,1.8235-1.0809,2.0643-2.1437c0.0113-0.0497,0.154-0.1677,0.2221-0.1846 c1.123-0.2885,1.5576-1.6619,2.5801-2.1465c0.2188-0.1054,0.4656-0.4336,0.6218-0.68c0.4082-0.6218,0.9608-1.0564,1.48289-1.5669 c1.8173-1.742,3.5927-3.5748,4.9708-5.7123c0.265-0.4427,0.5876-0.8957,1.0318-1.1383c0.7416-0.4071,1.2086-1.0611,1.556-1.843 c0.0983-0.2247,0.2217-0.5258,0.3767-0.6504c0.7827-0.6517,1.3494-1.4025,1.5064-2.386c0.0097-0.0607,0.1077-0.193,0.1581-0.2123 c0.9289-0.3492,1.2715-1.3024,1.7217-2.2504c0.0986-0.1949,0.1958-0.4065,0.3158-0.5922c1.109-1.7508,2.22401-3.8849,1.9738-6.4537 c-0.0251-0.2144-0.03809-0.4261,0.0486-0.5809c0.6395-1.1197,0.1459-2.8895-0.59499-4.1997 c-0.31731-0.6323-0.625-1.6362-1.5102-1.8814c-0.2794-0.0908-1.17281-1.2691-1.8875-1.7435 c-2.8889-2.0627-6.346-1.3748-9.0924-0.8997c-1.0202,0.649-2.2366,0.7644-3.207,1.3966c-0.6326,0.4181-0.7798,0.5077-0.4539,0.7756 c0.1077,0.0884,0.2708,0.1531,0.3036,0.2757c0.0911,0.3457-0.2276,0.717-0.6616,0.9309c-0.4914,0.2414-0.4999,0.0272-0.3669-0.3462 c0.1512-0.4005-0.333-0.4928-0.6769-0.3475c-0.5398,0.2239-1.1718,0.5172-1.3896,1.0857 c-0.0451,0.1122-0.0209,0.2268-0.0839,0.3342c-0.02789,0.0483-0.10609-0.0212-0.1653-0.0662 c-0.442-0.335-0.8506,0.0362-1.2546,0.5104c-0.4961,0.5822-0.8676,1.334-1.8102,1.2811c-0.8367,0.7355-1.981,1.2407-2.496,2.2507 c-0.1872,0.3781-0.3479,0.6402-0.8316,0.6588c-0.2638,0.0113-0.5408,0.2576-0.7823,0.4599 c-0.9663,0.8493-1.8195,1.8113-2.8832,2.5628c-0.2159,0.1523-0.1976,0.402-0.1468,0.5774l0.0871,0.0004l-0.0945,0.0247 c-0.5702,0.1657-1.027,0.5999-1.4763,1.0437c-0.2842,0.2818-0.5187,0.585-0.1753,0.7171c0.3426,0.1321,0.4416,0.3682,0.2253,0.8325 c-0.1971,0.4228-0.3257,0.8476-0.531,1.2659c-0.0951,0.1929-0.2466,0.0641-0.3212,0.0846 c-0.5618,0.1622-0.5645-0.0903-0.3873-0.533c0.1406-0.3524,0.5288-0.7413,0.3564-1.0701 c-0.4802,0.2357-0.4287,0.9123-1.0172,1.0144l-0.2479,0.1703c0.0232-0.2122,0.1649-0.1227,0.2491-0.1801 c0.0751-0.2542,0.0548-0.4566-0.2601-0.2626c-0.9777,0.625-1.9948,2.0663-2.0632,2.9653 c-0.0309,0.3973,0.2759,0.1805,0.5266-0.0505l0.0382-0.0909l-0.0054,0.0832c0.0218,0.3747-0.3691,0.8678-0.1251,1.1904 c0.2094,0.2793-0.2014,0.4636-0.3984,0.5768c-0.4646,0.2551-0.1519-0.1332-0.1145-0.2902c0.0501-0.2122-0.0412-0.3503-0.221-0.2372 c-0.6412,0.4025-0.4604-0.0392-0.3709-0.3844c0.0624-0.26,0.2654-0.5755-0.0589-0.6043c-0.3137-0.0294-0.3898,0.321-0.5836,0.528 c-0.5277,0.5752-0.4647,1.2414-1.0248,1.8012c-0.5979,0.5977-0.2761-0.1035-0.4104-0.1516 c0.0011-0.0398,0.0096-0.0846-0.0007-0.1162c0,0-0.0751,0.0099-0.0831,0.0236c-0.0229,0.0405-0.0294,0.0852-0.0425,0.128 c-0.2346,0.272-0.4605,0.5371-0.4804,0.8639c-0.0176,0.3366-0.3155,0.4442-0.5471,0.5962l-0.1808-0.1876 c-0.0517,0.0623-0.1476,0.1441-0.148,0.1832c-0.0032,0.1901,0.1388,0.1717,0.2957,0.1179c0.2588,0.2414,0.5489,0.326-0.0161,1.0845 c-0.4516,0.606-0.7844,1.5005-0.5868,2.2044c-0.3131,0.1157-0.5593,0.2066-0.8054,0.2975 c-0.0014-0.0393,0.0049-0.0853-0.0087-0.1152c-0.0049-0.0107-0.0765,0.0126-0.0847,0.0281 c-0.0223,0.041-0.0266,0.0864-0.0379,0.1301c-0.0558,0.0721-0.0933,0.1474-0.1132,0.2256l-0.0353,0.0962l0.0105-0.0891 l-0.4059-0.0326c0.2734-0.4836,0.4465-1.0515-0.0149-1.0282c-0.5589,0.0293-0.5465,0.6719-0.6786,1.0843 c-0.0412,0.1213,0.0064,0.2397,0.014,0.3592c0.0074,0.0342,0.0024,0.092,0.0244,0.0978c0.0547,0.0144,0.1216,0.0052,0.1834,0.0055 c-0.3604,0.7549-0.727,1.4949-1.4707,1.9611c0.0024-0.0382,0.007-0.078,0.0032-0.1129l-0.0677,0.0254 c-0.0045,0.0339-0.0099,0.0772-0.0153,0.1174c-0.087,0.5089-0.4145,1.109-0.0677,1.4425l0.0822-0.0152l-0.0836,0.0389 c-0.2986,0.3634-0.2466,0.7958-0.4937,1.1631c-0.1713-0.124-0.309-0.2679-0.4866-0.3404 c-0.1688-0.0691-0.4201,0.0379-0.4988,0.3129c-0.2587,0.9206-1.0623,1.7976-1.0123,2.7261 c-0.1105,0.0394-0.1528,0.1018-0.1061,0.1618c0.0136,0.0178,0.0701-0.015,0.1068-0.025c-0.2246,0.197,0.2637,1.085-0.5521,0.7265 c-0.2291-0.1006-0.4541,0.1667-0.5174,0.4899c-0.0706,0.3606-0.1725,0.912,0.094,0.9112c0.7468,0,0.078,0.5405,0.013,0.8454 l-0.0129,0.087l-0.0177-0.0726c-0.1723-0.2054-0.3183-0.4484-0.5237-0.605c-0.1436-0.1095-0.3861,0.0466-0.5242,0.2786 c-0.1577,0.2657,0.0436,0.2579,0.1621,0.288c0.2189,0.0556,0.1559,0.2667,0.0792,0.5158c-0.1454,0.4871-0.241,0.9862-0.3704,1.5244 c-0.53-0.1449-0.9488-0.2966-1.2746,0.8305c-0.1672,0.5905-0.8757,1.1139-0.5901,1.8356c0.1346,0.3295-0.5354,0.987-0.2694,1.4322 l-0.3159,0.1096l0.1114,0.3064c-0.0853,0.1686-0.1825,0.3172-0.3358,0.3698l-0.0774-0.1353l-0.0446,0.2048 c-0.5349,0.3599-0.8506,0.744-1.0594,1.5841c-0.1628,0.7583-0.4956,1.704-1.0902,2.3974l-0.0673,0.1308l0.0813-0.0336 c0.3402,0.1366,0.3801,0.2166,0.1598,0.483C33.6371,59.5572,33.6145,59.8366,33.5994,60.1594z M32.3317,65.228l-0.0968,0.0137 c-0.0094-0.038-0.0362-0.0817-0.0256-0.1133c0.0452-0.1351,0.1002-0.15051,0.1357-0.03841 C32.3556,65.1231,32.3371,65.1813,32.3317,65.228z M33.3185,63.2093c-0.09,0.1067-0.1767,0.2091-0.2734,0.3235 c-0.0165,0.0177-0.0796-0.015-0.0796-0.015c0.0578-0.2476,0.2263-0.2358,0.3469-0.3395l0.0666-0.0259L33.3185,63.2093z M46.6447,59.0884c-0.0883,0.0691-0.1579,0.0324-0.1443-0.067c0.0093-0.0697,0.0406-0.1444,0.0622-0.2168 c0.052,0.0268,0.1338,0.0388,0.1461,0.0851C46.7222,58.9414,46.6943,59.0499,46.6447,59.0884z M47.6116,57.9992 c-0.032,0.0324-0.079,0.0713-0.1171,0.0814c-0.1118,0.0304-0.1092-0.014,0.0135-0.1071c0.0347-0.0265,0.0838-0.0353,0.1261-0.0522 C47.6274,57.9477,47.6302,57.9801,47.6116,57.9992z M48.7583,57.1979l-0.0978,0.0008c0.029-0.0353,0.0522-0.0797,0.0882-0.1044 c0.1203-0.0828,0.1728-0.0727,0.1265,0.0189C48.8601,57.1429,48.7987,57.1697,48.7583,57.1979z M52.3342,54.4515 c-0.0805,0.2493-0.2729,0.3663-0.5267,0.4093l-0.2669,0.0853c0.0656-0.1916,0.1843-0.087,0.2772-0.1265l0.4866-0.3669l0.0547-0.079 L52.3342,54.4515z M54.0187,53.2276c-0.2232,0.1706-0.4465,0.3407-0.7314,0.5581c0.1125-0.4876,0.4367-0.532,0.7491-0.5961 l0.222,0.0101C54.1297,53.3691,54.111,53.1775,54.0187,53.2276z M55.6451,51.8803c-0.0486,0.0317-0.1173,0.0257-0.1767,0.0367 c0.0691-0.0653,0.1328-0.14,0.2092-0.192c0.0497-0.034,0.1182-0.0346,0.1972-0.0551 C55.7865,51.7531,55.7223,51.8295,55.6451,51.8803z M56.8225,50.8954l0.0668-0.0711l0.0154,0.0455L56.8225,50.8954z M58.0032,49.9395c-0.0793,0.0092-0.219-0.0018-0.219-0.0018c0.1133-0.3575,0.491-0.4883,0.7759-0.6796 C58.2873,49.4544,58.4707,49.8848,58.0032,49.9395z M64.4048,44.2214c-0.0499,0.0588-0.1471,0.1054-0.2212,0.1275 c-0.1043,0.0312-0.15051-0.0225-0.0951-0.1088c0.0766-0.1195,0.1825-0.2182,0.3183-0.1904 C64.4085,44.1019,64.4388,44.1816,64.4048,44.2214z M65.1573,43.688c-0.03661,0.1005-0.1247,0.1432-0.1638,0.0782 c-0.0269-0.0453-0.01-0.1362,0.0162-0.2079c0.0372-0.1004,0.1067-0.1287,0.1702-0.0835 C65.174,43.5457,65.1834,43.6158,65.1573,43.688z M66.9427,41.6301l-0.0289-0.0324l0.0783-0.0463L66.9427,41.6301z M68.5284,40.0463c0.0249-0.0173,0.06541,0.0015,0.0989,0.0035c-0.0023,0.0307,0.0051,0.0779-0.00829,0.0888 c-0.0325,0.0254-0.0815,0.0481-0.1117,0.0456C68.4151,40.1768,68.4225,40.12,68.5284,40.0463z M68.6253,41.0604 c-0.0894,0.0949-0.1353,0.0854-0.1143-0.0224c0.0062-0.0335,0.0374-0.0724,0.0571-0.1089l0.0857,0.0317 C68.6455,40.9924,68.6472,41.0367,68.6253,41.0604z M75.2909,32.0263c0.2756-0.3507,0.4322-0.8442,0.7749-0.7126 c0.0655,0.025,0.0401,0.2071,0.0563,0.3169L75.2909,32.0263z M81.5071,29.5767c-0.0106,0.0164-0.0724,0.03-0.0848,0.0148 c-0.05251-0.0641-0.0253-0.1384,0.0695-0.1927c0.0153-0.0088,0.0356,0.0349,0.0533,0.0546 C81.5337,29.495,81.5296,29.5411,81.5071,29.5767z M86.5069,19.1721l0.0569,0.0603l-0.06129,0.0308L86.5069,19.1721z M85.3265,24.4129l0.018,0.0818l-0.00539,0.1l-0.025-0.0785L85.3265,24.4129z M84.1176,15.587l0.0254,0.101l-0.0673-0.0867 L84.1176,15.587z M83.7962,23.3401l-0.024,0.0967l-0.0359-0.0254L83.7962,23.3401z M79.8256,11.9465 c0.0945,0.0236,0.2579,0.1131,0.2502,0.1352c-0.0518,0.1528-0.2774,0.1178-0.502,0.0801 c-0.0903-0.0409-0.2654-0.1029-0.2588-0.1185C79.3726,11.9069,79.5894,11.8812,79.8256,11.9465z M73.8589,16.1072l0.1643-0.3092 l0.1711-0.2693c0.1363-0.2025,0.32771-0.2779,0.5593-0.2118l0.0578,0.0347l-0.0761-0.0074l-0.5031,0.1942l-0.1805,0.2663 l-0.1699,0.3073l-0.0496,0.0688L73.8589,16.1072z M72.5004,16.8859c0.03101-0.027,0.075-0.0573,0.1108-0.0636 c0.1035-0.0163,0.0976,0.0226-0.0194,0.0978c-0.0328,0.0211-0.0776,0.0245-0.117,0.0361 C72.4827,16.9323,72.4825,16.9016,72.5004,16.8859z M71.3844,17.6575c0.1201-0.0562,0.2562-0.0911,0.3709-0.0935 c0.05849-0.0011,0.015,0.1004-0.0942,0.1572c-0.1074,0.0498-0.2295,0.1062-0.367,0.1699 C71.3321,17.7863,71.3456,17.6754,71.3844,17.6575z M69.1307,19.4729c0.083-0.104,0.1539-0.2182,0.2532-0.3093 c0.0877-0.0806,0.2295-0.2026,0.2813-0.0615c0.0133,0.0362-0.0698,0.1567-0.1317,0.1969c-0.114,0.0748-0.2455,0.1188-0.3699,0.176 l-0.1175,0.2248C68.8908,19.6316,69.1414,19.547,69.1307,19.4729z M67.9947,16.3447l0.0535,0.0367l-0.0568,0.0342L67.9947,16.3447z M66.6463,16.3701c0.0773-0.0585,0.1446-0.1298,0.2164-0.1953l-0.0353-0.3084c-0.0211-0.1625,0.0439-0.3022,0.286-0.366 c0.08279-0.0219,0.18159-0.0242,0.2343,0.0056c0.1544,0.0872,0.0671,0.2313-0.1013,0.381l-0.3355,0.2968 c-0.0777,0.1107-0.1384,0.2329-0.237,0.3287c-0.09959,0.0969-0.2986,0.2115-0.3299,0.0997 C66.3139,16.5054,66.538,16.4521,66.6463,16.3701z M65.3946,19.4457c0.0353-0.0138,0.0916-0.018,0.1037,0 c0.0432,0.0651-0.0043,0.1184-0.1171,0.1287c-0.02921,0.0028-0.0458-0.031-0.06841-0.048 C65.3399,19.4985,65.3667,19.4566,65.3946,19.4457z M64.8657,18.4716c-0.02,0.0625-0.099,0.1433-0.166,0.1968 c-0.1056,0.0842-0.1636,0.0683-0.1188-0.0239c0.0346-0.0712,0.1012-0.141,0.1538-0.2116 C64.831,18.366,64.8965,18.3761,64.8657,18.4716z M64.4825,17.6489c0.0747-0.0892,0.1594-0.1075,0.1606-0.032 c0.0007,0.0483-0.0695,0.135-0.1287,0.1874c-0.0396,0.0337-0.1143,0.0399-0.18089,0.0628 C64.3861,17.7829,64.4277,17.7134,64.4825,17.6489z M63.8816,17.3518c0.0338-0.1216,0.1069-0.2447,0.1663-0.3628l0.0434-0.092 l-0.0283,0.091c0.0132,0.104,0.0421,0.2031,0.0349,0.3131c-0.0059,0.0673-0.059,0.2149-0.0952,0.2291 C63.7837,17.6201,63.8519,17.4546,63.8816,17.3518z M61.4275,21.5456c-0.0187-0.0021-0.0081-0.0596-0.0107-0.0918 c0.0287-0.0313,0.0553-0.0729,0.0872-0.0901c0.0169-0.0092,0.0619,0.0167,0.0613,0.0392 C61.5631,21.4974,61.5077,21.5547,61.4275,21.5456z M61.5625,19.7399c-0.0374,0.4024-0.0049,0.6431-0.2637,1.0685 C61.2103,20.4757,61.1455,20.2502,61.5625,19.7399z M60.604,20.9308l-0.0026,0.0815l-0.0652-0.0311L60.604,20.9308z M60.5514,21.7669c0.0572-0.1067,0.141-0.1497,0.1695-0.0815c0.0169,0.0403-0.0322,0.1432-0.0814,0.2021 c-0.0392,0.0472-0.1236,0.0711-0.197,0.11C60.4826,21.9125,60.519,21.8353,60.5514,21.7669z M58.9088,23.6128 c0.1544-0.1154,0.2253-0.0441,0.2271,0.0655c0.0009,0.0565-0.0749,0.1434-0.1161,0.2163l-0.172-0.0783 C58.8671,23.7466,58.8661,23.6445,58.9088,23.6128z M57.2836,29.5098l-0.0266,0.0923l0.0147-0.0905l0.0279-0.0911L57.2836,29.5098z M58.0006,28.332c-0.0018,0.017-0.061,0.0515-0.0934,0.0779c-0.0355-0.0045-0.0817,0.0015-0.1019-0.0176 c-0.0101-0.0102,0.018-0.0795,0.0425-0.0979C57.9509,28.2165,58.0102,28.2313,58.0006,28.332z M57.9369,22.3839 c0.013,0.0187-0.0162,0.0704-0.0258,0.1071c-0.0341,0.019-0.0867,0.0589-0.0977,0.0525c-0.0225-0.0131-0.0394-0.05-0.0284-0.0802 C57.8265,22.3488,57.889,22.3166,57.9369,22.3839z M56.5455,23.6389c0.1607-0.1345,0.2228-0.036,0.3089,0.0005 c0.2389,0.1008,0.6248,0.0941,0.3563,0.5876c-0.0514,0.0943-0.2235,0.2265-0.32,0.2486c-0.4337,0.0984-0.1221-0.4233-0.3251-0.5315 C56.4739,23.8955,56.4559,23.7859,56.5455,23.6389z M52.729,27.7465c0.1592-0.1095,0.3401-0.1646,0.3778,0.0123 c0.0187,0.0879-0.0208,0.2106-0.0339,0.3175c-0.1434,0.0012-0.2868,0.0023-0.3806,0.0031 C52.5787,27.9655,52.5908,27.8414,52.729,27.7465z M50.8254,36.7866c0.0243,0.0544,0.0067,0.1417,0.0063,0.2158 c-0.0392-0.0462-0.0819-0.0892-0.1162-0.1403l-0.0902-0.1714C50.788,36.5716,50.7932,36.7147,50.8254,36.7866z M50.7439,32.1667 c0.0127,0.0233,0.0014,0.0666,0.0011,0.1011l-0.091-0.0219c-0.0147-0.0257-0.0507-0.0529-0.0401-0.077 C50.6467,32.0929,50.7023,32.0892,50.7439,32.1667z M49.7051,31.9428c0.0776-0.2922,0.1816-0.5834,0.464-0.9831 c0.0626,0.4095-0.2923,0.6887-0.4318,0.974l-0.0342,0.0874L49.7051,31.9428z M49.7562,37.4632 c0.025-0.033,0.0701-0.0526,0.106-0.0784l0.0065,0.078c-0.0317,0.0383-0.0593,0.0894-0.0924,0.1081 C49.6765,37.6268,49.6657,37.583,49.7562,37.4632z M49.5102,33.122c0.1526,0.1541,0.161,0.3694,0.0212,0.6282 c-0.3308,0.2477-0.5464,0.2147-0.6966,0.0871c-0.1854-0.1577-0.0906-0.4404,0.1529-0.6832 C49.2109,32.9298,49.3858,32.9961,49.5102,33.122z M48.606,32.6312l0.2178-0.1724c-0.0348,0.0688-0.0581,0.1475-0.1075,0.2043 c-0.0595,0.068-0.1416,0.1175-0.214,0.1748L48.606,32.6312z M48.1308,37.449l0.0726-0.0056l-0.0762,0.0401l-0.235,0.165 C47.9087,37.4589,48.0556,37.5235,48.1308,37.449z M44.8838,37.129l0.3151-0.2682l-0.2473,0.4094 C44.9153,37.2353,44.8929,37.1881,44.8838,37.129z M44.9097,43.9028c0.0153,0.0236,0.0119,0.0665,0.0171,0.1001l-0.0927-0.0135 c-0.0183-0.024-0.0574-0.0472-0.0501-0.0729C44.8069,43.8346,44.8599,43.8265,44.9097,43.9028z M43.9761,44.521l-0.0399,0.0861 l-0.0317-0.0318L43.9761,44.521z M42.3295,42.653l0.0318,0.0323l-0.073,0.0553L42.3295,42.653z M42.3013,47.2357l-0.0419,0.0662 l-0.0286-0.0683L42.3013,47.2357z M41.8384,43.4075l-0.0449,0.0857l-0.0265-0.0374L41.8384,43.4075z M41.5064,44.6581 c0.032-0.014,0.0768-0.0475,0.0927-0.0376c0.0227,0.0141,0.0432,0.0605,0.0318,0.0918c-0.0448,0.1183-0.1036,0.1493-0.1488,0.0702 C41.4687,44.76,41.497,44.7004,41.5064,44.6581z M36.5265,54.0768l0.0039,0.0603l-0.0566,0.0103L36.5265,54.0768z M33.9889,61.6258 l-0.0398,0.0701l-0.0308-0.0729L33.9889,61.6258z"/><path d="M58.4663,29.1989c-0.1164-0.0895-0.2969,0.0258-0.3993,0.2098c-0.1291,0.2323-0.2842,0.4761-0.1164,0.643 c0.1713,0.0196,0.3183-0.0709,0.4386-0.2295C58.5771,29.5747,58.6393,29.3318,58.4663,29.1989z"/><path d="M46.7922,34.0613c0.1276-0.1748,0.2066-0.3598,0.1134-0.4712c-0.1179-0.1416-0.2772,0.0394-0.4033,0.1938 c-0.1302,0.1593-0.2405,0.3417-0.1227,0.4565C46.5021,34.3599,46.6524,34.2159,46.7922,34.0613z"/><path d="M60.0039,28.3272c0.1333-0.1361,0.2591-0.2806,0.1378-0.3972c-0.0718-0.0688-0.1906-0.0572-0.3097,0.0538 c-0.1466,0.1367-0.2455,0.2869-0.1366,0.403C59.766,28.4625,59.8849,28.4254,60.0039,28.3272z"/><path d="M45.8542,34.9039c-0.062-0.0385-0.156,0.03-0.1828,0.1314c-0.0188,0.0709,0.0099,0.1339,0.0176,0.2003 l0.201-0.1511C45.8799,35.022,45.893,34.9278,45.8542,34.9039z"/><path d="M56.3929,31.521c-0.0345,0.0023-0.0828,0.0196-0.1141,0.0461c-0.0833,0.0708-0.091,0.1374-0.0308,0.1879 c0.0718-0.0283,0.1706-0.0402,0.2093-0.0889C56.5268,31.5784,56.4897,31.5149,56.3929,31.521z"/><path d="M30.7892,70.2331c0.0106-0.0079,0.0102-0.0639,0.0147-0.0981c-0.0268,0.0029-0.0558-0.0043-0.0792,0.013 c-0.0109,0.0079-0.0102,0.0639-0.0149,0.0981C30.7366,70.2432,30.7659,70.2504,30.7892,70.2331z"/><path d="M79.0078,26.2746c-0.0021,0.013,0.0499,0.0137,0.07671,0.02l0.0543-0.1206 C79.0751,26.114,79.0275,26.1483,79.0078,26.2746z"/><path d="M30.5028,68.8893c0.027-0.0024,0.0569,0.0055,0.0805-0.0121c0.011-0.0085,0.0106-0.0662,0.0155-0.1012 c-0.0272,0.0026-0.0568-0.0049-0.0804,0.0128C30.5071,68.7972,30.5075,68.8544,30.5028,68.8893z"/><path d="M52.5202,35.7329c-0.0214,0.0219-0.0225,0.0653-0.0331,0.0991c0.0286,0.0012,0.061,0.0155,0.085,0.0004 c0.0279-0.0176,0.0669-0.0659,0.0694-0.0916C52.6496,35.6557,52.5996,35.6516,52.5202,35.7329z"/><path d="M55.587,32.4223c-0.0254,0.0126-0.0563,0.0596-0.0648,0.0889c-0.0059,0.0199,0.0232,0.0361,0.0367,0.0538 c0.0317-0.0191,0.0764-0.0331,0.0927-0.0578C55.7207,32.4022,55.6946,32.3679,55.587,32.4223z"/><path d="M44.2493,36.8198l-0.0827,0.0694l0.032,0.0823c0.0279-0.0237,0.0776-0.0547,0.079-0.0693 C44.2811,36.8705,44.2602,36.8469,44.2493,36.8198z"/><path d="M79.4787,65.6103c-0.5457,0.0394-0.6729,0.0355-0.5792,0.4346c0.0309,0.1311,0.1043,0.2703,0.0761,0.3922 c-0.0803,0.3445-0.4208,0.4919-0.7727,0.4442c-0.39931-0.05811-0.32211-0.2455-0.0903-0.4878 c0.2521-0.2602-0.0111-0.5923-0.285-0.6571c-0.4077-0.0919-0.9105-0.1897-1.2744,0.1629c-0.0719,0.0697-0.103,0.1755-0.1851,0.2281 c-0.037,0.0236-0.0591-0.0779-0.0789-0.14851c-0.1487-0.5329-0.558-0.4402-1.0011-0.2669 c-0.5467,0.2105-1.0645,0.6394-1.6568,0.1062c-0.8151,0.1871-1.76051-0.0419-2.4548,0.5428 c-0.2567,0.2125-0.4492,0.3624-0.7795,0.1254c-0.1805-0.1278-0.4487-0.0565-0.6796-0.0144 c-0.9416,0.1812-1.8369,0.5293-2.7979,0.6342c-0.1956,0.0202-0.2594,0.2421-0.2774,0.417l0.05991,0.0445l-0.0726-0.0271 c-0.4485-0.1675-0.9031-0.0548-1.3483,0.0892c-0.2832,0.0884-0.5376,0.2202-0.33459,0.5083 c0.2021,0.2879,0.2016,0.5365-0.08321,0.8111c-0.2606,0.2463-0.4659,0.54919-0.7244,0.7976 c-0.1191,0.1157-0.19-0.0696-0.2478-0.0895c-0.4411-0.1537-0.3725-0.35851-0.1256-0.6453 c0.1965-0.2279,0.5775-0.3629,0.5497-0.7287C63.91,68.2402,63.76,68.8476,63.313,68.6285l-0.2264,0.0084 c0.0769-0.1614,0.1534-0.0134,0.2299-0.0158c0.1261-0.1694,0.1686-0.3512-0.1114-0.3526 c-0.8841-0.0088-2.0143,0.6832-2.2954,1.4037c-0.1245,0.3194,0.1522,0.2886,0.3916,0.2182l0.0511-0.05721l-0.0257,0.0671 c-0.0812,0.3264-0.4874,0.548-0.3936,0.94c0.0819,0.34299-0.2617,0.2857-0.4367,0.2707c-0.4061-0.0354-0.0765-0.1868-0.0081-0.2949 c0.092-0.146,0.0618-0.3057-0.0996-0.3078c-0.5758-0.0064-0.328-0.2707-0.1705-0.5048c0.1165-0.1737,0.3418-0.3462,0.1151-0.5288 c-0.2175-0.1741-0.371,0.0628-0.5679,0.1333c-0.5435,0.1931-0.6614,0.7865-1.2163,0.9623 c-0.5915,0.1921-0.1786-0.2238-0.2654-0.3311c0.0109-0.032,0.0283-0.0648,0.0289-0.09579c0,0-0.0584-0.0296-0.0676-0.0221 c-0.0275,0.0218-0.0434,0.055-0.0639,0.0839c-0.2432,0.1042-0.4747,0.216-0.5675,0.4804 c-0.0952,0.2701-0.3366,0.2246-0.5505,0.2256l-0.0889-0.2438c-0.0547,0.0239-0.1477,0.0408-0.158,0.0722 c-0.05,0.1519,0.0618,0.2094,0.1936,0.246c0.1343,0.3271,0.3307,0.54369-0.2809,0.8648 c-0.4831,0.2695-0.9437,0.83569-0.9553,1.5056c-0.2609-0.0576-0.4661-0.10281-0.6713-0.1481 c0.0077-0.0335,0.0225-0.0681,0.0188-0.0995c-0.0011-0.0114-0.06-0.0265-0.0699-0.0177c-0.0257,0.0231-0.039,0.0587-0.0571,0.0893 c-0.0577,0.0327-0.1026,0.0768-0.1349,0.1319l-0.0477,0.0623l0.0275-0.0687l-0.3004-0.22559 c0.3157-0.2616,0.5711-0.65331,0.2191-0.8549c-0.4269-0.2425-0.5632,0.2947-0.7651,0.5504 c-0.0603,0.0761-0.0513,0.1944-0.0736,0.29321c-0.0022,0.031-0.0195,0.0747-0.004,0.09019 c0.0386,0.0392,0.0925,0.06561,0.14,0.0969c-0.4558,0.4171-0.8925,0.8461-1.5707,0.856l0.0274-0.0899l-0.058-0.0123 c-0.0107,0.0246-0.0247,0.0571-0.0378,0.0871c-0.1798,0.3662-0.5509,0.7094-0.3561,1.14169l0.0673,0.02831l-0.0736-0.0103 c-0.3142,0.1374-0.3694,0.5029-0.6434,0.6683c-0.1071-0.1823-0.1835-0.3634-0.3069-0.5083 c-0.1181-0.1392-0.3366-0.1749-0.4569,0.0063c-0.4004,0.6042-1.209,0.9247-1.3597,1.6872 c-0.0966-0.0237-0.1438,0.0038-0.1195,0.0737c0.0069,0.02029,0.0589,0.0225,0.0902,0.0331 c-0.2219,0.0426-0.0229,0.9704-0.5966,0.2921c-0.1618-0.1917-0.3981-0.0926-0.514,0.1326 c-0.1305,0.2495-0.3244,0.63361-0.1121,0.7611c0.5937,0.3595-0.0474,0.4615-0.1611,0.6694l-0.0276,0.0617l0.0004-0.0653 c-0.0956-0.2435-0.1628-0.5045-0.2948-0.726c-0.0921-0.1548-0.3175-0.1488-0.4748-0.0326 c-0.1787,0.1351-0.0162,0.2253,0.0716,0.3047c0.1629,0.1476,0.0719,0.28609-0.037,0.44759 c-0.1895,0.3029-0.3986,0.63741-0.6196,0.9906c-0.3987-0.3697-0.7072-0.6899-1.1994,0.0278 c-0.2572,0.3737-0.9316,0.4482-0.8455,1.1414c0.0394,0.3134-0.6515,0.48289-0.5286,0.9465l-0.282-0.0695l0.0281,0.2867 c-0.1041,0.0877-0.214,0.1541-0.3503,0.121l-0.0354-0.1401L43.2,82.5007c-0.5101,0.0197-0.8521,0.15739-1.1898,0.7032 c-0.3017,0.4837-0.79,1.01759-1.4249,1.25629l-0.0832,0.0657l0.0742,0.01369c0.2527,0.2654,0.2688,0.3446,0.0302,0.4382 c-0.2809,0.1107-0.3599,0.3081-0.4389,0.5442c-0.1096,0.3344-0.288,0.63699-0.5241,0.908l-0.0587,0.1904 c-0.1359-0.0725,0.0432-0.1276,0.0298-0.1935c-0.0765-0.1837-0.1531-0.3676-0.2326-0.55801 c-0.6371,0.4745-0.7714,0.5676-0.6641,0.7434c0.2925,0.478-0.6512,0.0874-0.3911,0.61771 c0.1897,0.3817-0.521,0.01289-0.5579,0.34119c-0.0754,0.7705-0.7548,1.0933-1.1677,1.6162c-0.0871,0.1107-0.16,0.239-0.0697,0.3799 c0.2341,0.3655,0.1756,0.353,0.0928,0.6004c-0.1446,0.4273-0.5295,0.636-0.7815,0.9688c0.5887-0.0872,0.9717-0.3769,1.2491-0.7783 c0.0081,0.1713,0.0829,0.3305,0.2571,0.4559c0.3542,0.2549,0.703,0.5768,1.1657,0.6269c1.5319,0.1696,2.9928,0.6638,4.5587,0.7578 c2.3843,0.1718,4.7899,0.1655,7.176,0.4749c1.0567,0.0977,2.115,0.0223,3.1839,0.0715c1.0461,0.0459,2.1484-0.2242,3.2247-0.1054 c1.1424,0.1551,2.213-0.2914,3.3461-0.2887c0.9517,0.02451,1.9048-0.3193,2.85-0.3229c0.8748,0.0063,1.7566-0.1181,2.5722-0.288 c1.7611-0.39149,3.5687-0.491,5.2862-1.0257c0.6866-0.1971,1.5845,0.0429,2.0535-0.7332c0.0218-0.0364,0.1546-0.0634,0.2068-0.043 c0.8718,0.3442,1.5704-0.5476,2.4213-0.4417c0.18381,0.0243,0.44891-0.1231,0.62691-0.2483 c0.45779-0.3158,0.9782-0.3595,1.4875-0.5174c1.7498-0.5168,3.5793-0.99551,5.2352-2.2028 c0.3303-0.2408,0.708-0.4681,1.1367-0.4827c0.7184-0.0221,1.2852-0.4258,1.7408-1.0075c0.13-0.1715,0.2918-0.3972,0.4518-0.46481 c0.8319-0.3145,1.5006-0.89059,1.7107-1.7817c0.0132-0.0535,0.115-0.1585,0.1643-0.1738 c0.94431-0.2266,1.2716-1.1896,1.6009-1.9972c0.0735-0.1763,0.15331-0.3554,0.241-0.5238 c0.88309-1.5388,1.4835-3.49831,0.8748-5.3903c-0.052-0.1573-0.0927-0.3141-0.0241-0.4413 c0.4854-0.9295-0.058-2.1233-0.6082-3.0475c-0.2602-0.4444-0.3419-1.1894-1.0704-1.3094 c-0.2275-0.046-0.7014-0.99139-1.1261-1.4351c-1.7587-1.9069-4.138-1.9146-5.9158-2.6237 C81.0731,66.0332,80.3106,65.5567,79.4787,65.6103z M90.1188,74.3113l-0.0577,0.031l-0.005-0.0674L90.1188,74.3113z M89.796,78.5376l0.0129,0.0844l-0.0383-0.0651l-0.0068-0.0878L89.796,78.5376z M88.0918,77.666l-0.00729,0.0743l-0.0388-0.0185 L88.0918,77.666z M87.7472,71.9276l0.0137,0.0746L87.707,71.9437L87.7472,71.9276z M79.7077,70.7421l0.2233-0.18941l0.2136-0.1569 c0.1657-0.1167,0.3144-0.0954,0.4356,0.0664l0.0231,0.05701l-0.0452-0.0408l-0.39339-0.0567l-0.2183,0.1508l-0.2266,0.1851 l-0.0578,0.0366L79.7077,70.7421z M78.5745,70.7262c0.0289-0.00639,0.0669-0.0086,0.0907,0.0052 c0.0685,0.04,0.0493,0.0715-0.0495,0.0726c-0.0276,0.0003-0.0556-0.0207-0.0836-0.032 C78.546,70.7561,78.5576,70.73,78.5745,70.7262z M77.6087,70.79c0.0938,0.0179,0.1934,0.0566,0.26369,0.1157 c0.0356,0.0306-0.0283,0.0923-0.119,0.0849c-0.0803-0.0142-0.1811-0.0322-0.2905-0.0513 C77.5268,70.8711,77.5779,70.7844,77.6087,70.79z M76.0403,67.8269l0.0194,0.0602l-0.0486-0.0028L76.0403,67.8269z M76.034,71.0466 c-0.0051,0.0376-0.0985,0.0923-0.15009,0.092c-0.09531-0.0006-0.1901-0.0359-0.2853-0.0568l-0.1509,0.1226 c-0.0697-0.1423,0.1118-0.0747,0.1318-0.1425c0.0871-0.0411,0.17101-0.0974,0.2635-0.1189 C75.925,70.9242,76.0544,70.9006,76.034,71.0466z M75.1833,67.1084c0.07101-0.0063,0.1406-0.029,0.21091-0.0444l0.0952-0.277 c0.0486-0.1471,0.1438-0.2284,0.3221-0.1489c0.0607,0.0272,0.124,0.0794,0.1459,0.1332c0.0634,0.1577-0.04729,0.2302-0.2107,0.2628 l-0.32539,0.064c-0.0912,0.0498-0.1758,0.1185-0.2743,0.1445c-0.0997,0.0261-0.26891,0.013-0.2471-0.0975 C74.9208,67.0393,75.0835,67.1175,75.1833,67.1084z M73.4419,67.0894c-0.0169,0.0418-0.0934,0.0785-0.15041,0.0919 c-0.0374,0.0088-0.0882-0.0279-0.14-0.04649c0.06461-0.03851,0.1166-0.0761,0.1753-0.1026 C73.407,66.9959,73.4681,67.0247,73.4419,67.0894z M73.2762,69.0282c0.0272,0.0086,0.0649,0.03671,0.066,0.0584 c0.0049,0.0778-0.044,0.0949-0.1194,0.0402c-0.0195-0.0141-0.0187-0.0515-0.0269-0.0783 C73.2228,69.0408,73.2545,69.0217,73.2762,69.0282z M73.1029,67.9994c-0.0979,0.0099-0.1298-0.0356-0.0684-0.0863 c0.0476-0.0394,0.1156-0.0594,0.1748-0.088c0.0863-0.00111,0.1248,0.0442,0.0709,0.10539 C73.2449,67.9706,73.1655,67.9928,73.1029,67.9994z M73.0426,66.4573c0.0663-0.0794,0.1589-0.1432,0.24039-0.214l0.06181-0.0556 l-0.0517,0.0626c-0.0291,0.0955-0.0461,0.1949-0.0908,0.2845c-0.0279,0.056-0.1164,0.1452-0.145,0.1372 C72.8811,66.6239,72.9857,66.5256,73.0426,66.4573z M70.6794,67.2144c-0.1591,0.3234-0.2172,0.5453-0.5274,0.7732 C70.2017,67.6589,70.2323,67.4336,70.6794,67.2144z M70.0202,68.5903c0.02959-0.0099,0.0609-0.0295,0.0877-0.0261 c0.0144,0.0018,0.0357,0.0479,0.028,0.0659c-0.0323,0.07681-0.0876,0.0932-0.13831,0.0417 C69.9859,68.6598,70.0117,68.6185,70.0202,68.5903z M69.6461,67.7133l-0.0286,0.0658l-0.0338-0.0613L69.6461,67.7133z M69.3405,68.3806c0.0719-0.059,0.142-0.0507,0.1393,0.0215c-0.00169,0.0429-0.0674,0.1029-0.1189,0.1261 c-0.0414,0.0187-0.1053-0.006-0.167-0.0123C69.2479,68.4659,69.2976,68.42,69.3405,68.3806z M67.6602,69.0665 c0.1389-0.0194,0.1653,0.0776,0.1338,0.1717c-0.0162,0.0484-0.0934,0.08321-0.143,0.1242l-0.0928-0.1541 C67.5918,69.1588,67.6218,69.0719,67.6602,69.0665z M67.2435,67.5165c0.0634-0.07671,0.1163-0.07211,0.1285,0.0096 c0.0032,0.0222-0.0326,0.0518-0.0506,0.0779c-0.02901-0.0011-0.07751,0.0063-0.0829-0.005 C67.2271,67.5765,67.2269,67.5364,67.2435,67.5165z M65.9491,68.1193c-0.0491-0.0884-0.029-0.1895,0.0774-0.2658 c0.1534-0.0246,0.1668,0.09,0.21581,0.1664c0.1364,0.2109,0.4058,0.41351,0.0705,0.6741 c-0.0644,0.0482-0.22169,0.0718-0.2953,0.0387C65.6875,68.5889,66.0576,68.3157,65.9491,68.1193z M65.6018,72.4088 c0.0916-0.0106,0.128,0.03291,0.0945,0.1112c-0.0057,0.0135-0.0556,0.0103-0.08459,0.0159 c-0.0229-0.0218-0.056-0.0401-0.0645-0.0666C65.5429,72.4559,65.5803,72.4112,65.6018,72.4088z M64.8927,73.142l0.0425-0.0625 l-0.03371,0.0667l-0.04179,0.0644L64.8927,73.142z M62.16,69.3172c0.1441-0.0095,0.2886,0.0373,0.2674,0.2037 c-0.0104,0.0828-0.0718,0.16431-0.11,0.2461c-0.1029-0.0722-0.206-0.1446-0.2737-0.1921 C61.9928,69.4225,62.0351,69.3256,62.16,69.3172z M59.5841,71.9646c0.0033,0.0256-0.0154,0.0556-0.0242,0.0837l-0.0611-0.064 c-0.0044-0.0287-0.0242-0.0691-0.0105-0.0836C59.5312,71.8549,59.5725,71.8799,59.5841,71.9646z M58.8781,71.2564 c0.1293-0.2013,0.2784-0.3886,0.5862-0.5757c-0.0574,0.36909-0.3871,0.4199-0.5606,0.5844l-0.0465,0.0547L58.8781,71.2564z M58.5658,75.7772c0.0055,0.0551-0.0265,0.1171-0.0434,0.1769l-0.0542-0.1722l-0.0283-0.1845 C58.5875,75.5869,58.5584,75.7033,58.5658,75.7772z M58.4484,72.1316c0.0751,0.2034,0.0311,0.387-0.1312,0.534 c-0.2984,0.04659-0.4519-0.0913-0.5333-0.2724c-0.0986-0.21861,0.0383-0.40581,0.2736-0.49071 C58.2742,71.8246,58.3867,71.9655,58.4484,72.1316z M57.9006,71.2793l0.2015-0.0378c-0.0421,0.0407-0.0778,0.0952-0.1278,0.1184 c-0.0599,0.0279-0.1322,0.029-0.1992,0.0416L57.9006,71.2793z M57.6281,75.7853c0.026-0.0141,0.0635-0.0074,0.0958-0.0103 l-0.0123,0.0665c-0.0317,0.015-0.0637,0.0423-0.092,0.0408C57.5336,75.8776,57.535,75.8368,57.6281,75.7853z M56.4212,74.9608 l0.0556,0.0317l-0.0656-0.0056l-0.2103,0.0209C56.2536,74.8601,56.3485,74.9833,56.4212,74.9608z M54.0403,73.0996l0.3052-0.055 l-0.2861,0.2016C54.0399,73.2001,54.0336,73.1512,54.0403,73.0996z M52.6049,78.525c0.007,0.0262-0.0042,0.0582-0.0071,0.0878 l-0.0688-0.0563c-0.0092-0.0279-0.0349-0.06561-0.0242-0.08241C52.539,78.4206,52.582,78.4401,52.6049,78.525z M51.7557,78.5578 l-0.0484,0.0488l-0.0182-0.0407L51.7557,78.5578z M50.8561,76.274l0.0182,0.0415l-0.0686,0.0085L50.8561,76.274z M50.3146,76.6364 l-0.0532,0.0466l-0.013-0.0428L50.3146,76.6364z M49.8028,77.4795c0.0277,0.0035,0.0693-0.0021,0.0796,0.0134 c0.0151,0.0223,0.0222,0.0695,0.007,0.0892c-0.0576,0.0748-0.1116,0.0686-0.1304-0.0151 C49.7535,77.5438,49.787,77.5089,49.8028,77.4795z M49.8926,79.8689l-0.0466,0.0316l-0.0088-0.0672L49.8926,79.8689z M43.8585,82.3532l-0.0092,0.0477l-0.0481-0.0191L43.8585,82.3532z M40.1654,86.7869l-0.0495,0.0317l-0.009-0.0678L40.1654,86.7869 z M39.25,87.5934l0.0614,0.0131l-0.0632,0.0129c-0.0984,0.0349-0.1918,0.0677-0.2996,0.1057 c-0.0176,0.0053-0.0633-0.0493-0.0633-0.0493C38.9884,87.5214,39.1264,87.6117,39.25,87.5934z M37.8896,88.4871 c0.0709-0.0745,0.1207-0.0586,0.1238,0.0392c0.0008,0.0286-0.0289,0.0612-0.0447,0.0921l-0.0847-0.0377 C37.8851,88.5487,37.8731,88.5045,37.8896,88.4871z M54.0459,89.6958c-0.0801,0.0081-0.1082-0.061-0.0621-0.1361 c0.0322-0.0525,0.0794-0.0973,0.1202-0.1454c0.0215,0.0511,0.0664,0.1066,0.0562,0.1521 C54.1488,89.6167,54.0907,89.6911,54.0459,89.6958z M55.0456,89.3288c-0.0315,0.0092-0.0747,0.01521-0.1018,0.0027 c-0.0798-0.0372-0.0614-0.07249,0.0482-0.0814c0.0311-0.0028,0.0642,0.017,0.0963,0.0265 C55.0744,89.2948,55.064,89.3231,55.0456,89.3288z M56.1468,89.2689c-0.0201,0.0169-0.0679,0.0066-0.1026,0.0088l-0.0609-0.05151 c0.0309-0.0145,0.061-0.0395,0.0923-0.0413C56.1797,89.1796,56.2084,89.2163,56.1468,89.2689z M59.2453,88.9019 c-0.1359,0.1678-0.2977,0.1649-0.4723,0.0666l-0.1971-0.0694c0.107-0.127,0.1456,0.0243,0.2175,0.0401l0.4326-0.0522l0.0614-0.0376 L59.2453,88.9019z M60.7299,88.7826c-0.1999,0.0219-0.3995,0.0437-0.6543,0.0713c0.2362-0.3423,0.4572-0.20229,0.6782-0.0942 l0.1386,0.1255C60.754,88.9606,60.8055,88.789,60.7299,88.7826z M62.2149,88.502c-0.0413,0.0013-0.0839-0.0398-0.1258-0.0622 c0.0658-0.01839,0.1308-0.0481,0.1967-0.0516c0.043-0.0024,0.0878,0.0332,0.1455,0.0575 C62.3472,88.4693,62.2813,88.4997,62.2149,88.502z M63.3548,88.317l-0.0615-0.0218l0.0659-0.0246L63.3548,88.317z M64.3645,88.1129 c-0.055-0.0341-0.1434-0.117-0.1434-0.117c0.1849-0.2411,0.4727-0.15221,0.7191-0.1632 C64.7008,87.8541,64.6888,88.3127,64.3645,88.1129z M70.3322,86.6611c-0.0508,0.02209-0.1305,0.009-0.1875-0.0119 c-0.0805-0.0295-0.0967-0.0986-0.0346-0.1402c0.0864-0.05811,0.1865-0.0838,0.2721,0.0114 C70.3682,86.5644,70.3666,86.6462,70.3322,86.6611z M70.9948,86.6024c-0.0528,0.0662-0.12469,0.0571-0.1335-0.0178 c-0.0059-0.0517,0.0306-0.11971,0.06841-0.1665c0.0528-0.0655,0.1081-0.054,0.1391,0.0166 C71.0453,86.4912,71.0325,86.5552,70.9948,86.6024z M72.7899,85.8181l-0.011-0.0419l0.067,0.0041L72.7899,85.8181z M74.1146,86.2171c-0.0877,0.0329-0.1171,0.0015-0.0737-0.0774c0.0134-0.02451,0.0454-0.041,0.0691-0.0612l0.0513,0.0706 C74.1471,86.171,74.1365,86.2088,74.1146,86.2171z M74.3554,85.4477c-0.0292,0.0045-0.0695-0.0021-0.0899-0.0194 c-0.0624-0.0537-0.0424-0.097,0.05099-0.104c0.0222-0.0015,0.0455,0.03519,0.0682,0.0541 C74.3751,85.4028,74.3679,85.4456,74.3554,85.4477z M81.7693,82.4023l-0.69241-0.0896c0.26791-0.1402,0.4576-0.45399,0.6966-0.1898 C81.8199,82.1733,81.7738,82.3064,81.7693,82.4023z M86.4974,82.5429c0.0146-0.0041,0.0301,0.0393,0.0449,0.0607 c-0.01369,0.0335-0.0209,0.0732-0.04449,0.0988c-0.011,0.0119-0.0687,0.0083-0.0787-0.0083 C86.3765,82.6245,86.4066,82.5665,86.4974,82.5429z M85.1921,68.7165c0.0613,0.0345,0.1515,0.1396,0.1392,0.1591 c-0.0853,0.1357-0.2389,0.0761-0.3885,0.0086c-0.0509-0.0524-0.1564-0.1331-0.1468-0.1472 C84.8818,68.6149,85.0405,68.6256,85.1921,68.7165z M82.2378,71.2145c0.1236,0.1773,0.2129,0.3738,0.293,0.5716l0.3115,0.116 l0.0627-0.0075l-0.0592,0.0244c-0.1385,0.459,0.1661,0.374,0.3502,0.3698c0.3653,0.0145,0.0851-0.4148,0.2993-0.5643 c0.0556,0.1156,0.1317,0.21,0.145,0.3222c0.0585,0.4522,0.0056,0.8383,0.57,0.6912c0.0389-0.0094,0.09531,0.0373,0.103,0.0773 c0.044,0.5721,0.4914,0.4967,0.9634,0.659c0.1949,0.0442,0.7477,0.0865,0.0377,0.4111c-0.2209,0.1011-0.0253,0.1887,0.1046,0.2176 c0.7348,0.17661,0.7874,0.2879,0.4539,0.8494c-0.127,0.2022-0.3724,0.3123-0.3381,0.5744 c0.03481,0.2836,0.43491,0.3527,0.569,0.5908c-0.2634,0.1879-0.6349,0.1307-0.6382,0.4766 c0.0039,0.4321-0.2713,0.8001-0.4339,1.2005c-0.1547,0.3935,0,0.96889-0.4685,1.2254l0.1766,0.2245 c0.1427-0.0503,0.2856-0.1004,0.4591-0.1611c-0.0819,0.3113-0.268,0.2598-0.4577,0.1716 c0.11629,0.6198-0.44521,0.7168-0.8563,0.8712c-0.3876-0.17699-0.4697-0.0572-0.35561,0.3215 c-0.0331,0.0372-0.05399,0.081-0.06329,0.1317l-0.0508,0.176c-0.129-0.0881,0.0412-0.115,0.0268-0.1815 c-0.1199-0.1263-0.2644-0.2439-0.4135-0.1202c-0.6267,0.542-1.2649,1.1843-2.1471,1.4798 c-0.1799,0.0603-0.4399,0.22739-0.4002,0.5161c0.0398,0.305-0.1617,0.2974-0.3669,0.3374 c-0.22861,0.041-0.472-0.2099-0.66991,0.0356c-0.18359,0.2219,0.0755,0.4779,0.0349,0.7112 c-0.2364-0.0392-0.4053-0.0672-0.5746-0.0951c0.0991-0.0909,0.2697-0.1717,0.2052-0.3173 c-0.0832-0.1921-0.2216-0.0232-0.3362,0.0092c-0.238-0.0487-0.42799,0.0124-0.4481,0.2721 c-0.0092,0.1209,0.0849,0.2443,0.1301,0.3671c0.0469,0.12811,0.09209,0.2759-0.05241,0.3696 c-0.3149,0.19971-0.1003-0.2436-0.27959-0.2121c-0.26791,0.0468-0.4826,0.0536-0.331-0.3029 c-0.4115-0.1347-0.7293,0.0065-0.83241,0.3945c-0.1271,0.471-0.47839,0.5849-0.8918,0.6744 c-0.04259-0.3098,0.5241-0.2891,0.3806-0.6591c-0.1141,0.0344-0.216,0.05669-0.3111,0.0951 c-0.398,0.1586-1.0457,0.2636-1.1407,0.49799c-0.2578,0.6716-0.7012,0.06841-1.0446,0.28101 c-0.63219,0.3967-1.5488,0.282-2.0065,1.0347L71.896,85.9919l0.0273-0.0606c-0.1176-0.2074-0.2931-0.19009-0.529-0.16949 c-0.42841,0.03519-0.7756,0.3559-1.2237,0.2998c-0.4194-0.0553-0.6369,0.1573-0.7782,0.5271 c-0.1319,0.3451-0.1696,0.3346-0.6928,0.4347c0.0629-0.164,0.3589-0.2455,0.2208-0.4827 c-0.46011,0.0656-0.4431,0.0765-0.9705,0.7122c-0.0694,0.0806-0.4726,0.3317-0.4989-0.0442 c-0.02789-0.3934-0.2763-0.3471-0.49709-0.29501c-0.4661,0.11031-0.9603,0.16821-1.34621,0.4981 c0.3231,0.1748,0.6883,0.0726,1.03471,0.1081c-0.3504-0.0274-0.7758,0.5172-1.0498-0.09299 c-0.392-0.00311-0.7733,0.05579-1.1628,0.1153c-1.1684,0.1872-2.2925,0.6539-3.4655,0.6884 c-1.0859,0.0357-2.1067,0.3755-3.1784,0.3922c-0.1015-0.0022-0.2156,0.0366-0.3045,0.08649 c-0.1368,0.0762-0.1858,0.16621-0.0391,0.30441c0.0384,0.03619,0.66-0.1433,0.1226,0.1688 c-0.1567,0.0909-0.5101,0.1688-0.5505-0.2261c-0.0211-0.2058-0.2024-0.2577-0.3998-0.17789 c-0.5845,0.23199-1.2179,0.2276-1.8102,0.1709c-0.5776-0.04601-1.1008,0.5574-1.7014,0.0934 c-0.1087-0.0859-0.2694,0.1044-0.3773,0.2583c-0.4056,0.5838-0.8228,0.6155-1.5242,0.17c0.1414-0.0007,0.2839,0.0075,0.4241-0.0049 c0.1342-0.0119,0.3016-0.03201,0.2382-0.2115c-0.0348-0.0986-0.1603-0.1116-0.272-0.085c-0.1732,0.0412-0.3335,0.103-0.4368,0.2489 c-0.5569,0.1395-1.0981,0.4295-1.7065,0.2018l0.1324-0.223c0,0-0.0423-0.0366-0.0652-0.0559l-0.1292,0.2276 c-1.5053,0.2834-3.0631,0.3456-4.5855,0.2493c-2.3089-0.1855-4.6041,0.1438-6.9144-0.1577 c-0.2168-0.0254-0.371,0.0285-0.4942,0.1204c0.0272-0.072,0.0622-0.1349,0.086-0.2109l0.0162-0.0755v0.0755 c0.2741,0.1136,0.5331,0.0741,0.7638-0.1515c0.7357-0.7244,1.6226-1.2367,2.4518-1.8194c0.0099-0.0575,0.0154-0.1159,0.0327-0.1719 c0.0051-0.0167,0.0431-0.0257,0.0659-0.0382l-0.0938,0.2104c0.3702,0.0544,0.448-0.2203,0.5916-0.4794 c0.3258-0.5876,0.7984-1.1448,1.4547-1.2234c0.5695-0.0578,0.7083-0.59489,1.1468-0.72739l-0.1206-0.2639l-0.0684-0.0123 l0.0713-0.0128c0.2291-0.0857,0.5157,0.1283,0.6937-0.2854c0.1623-0.3713,0.4758-0.7033,0.9902-0.5926 c0.098,0.02119,0.3381-0.1061,0.3484-0.1773c0.1031-0.68401,1.1275-0.3828,1.1815-1.0947c0.406,0.1742,0.4054-0.3803,0.4728-0.3619 c0.5689,0.162,0.4053-0.289,0.5208-0.5213c0.0672-0.1363,0.2873-0.1879,0.3667-0.1352c0.508,0.3371,0.7902-0.17229,1.0346-0.3884 c0.2916-0.2612,0.4034-0.6578,0.9405-0.6109c0.2175,0.0163,0.5259-0.2492,0.2837-0.5915 c-0.0651,0.0045-0.1186,0.0317-0.1604,0.0824c-0.0239,0.0989-0.0831,0.1408-0.1849,0.1157l-0.0766-0.0186l0.0785,0.0017 l0.0841-0.0473l0.0765-0.0592c0.026-0.0961,0.087-0.135,0.1853-0.1116c0.277-0.0182,0.6388,0.2076,0.8002,0.01151 c0.5405-0.6608,1.4135-0.8255,1.9867-1.4106c0.0745-0.0745,0.0069-0.1888-0.0676-0.26311l-0.0634-0.0377l0.0704,0.0191 c0.7808,0.0695,0.7751,0.07259,0.9148-0.54111l0.0335-0.0564l-0.0064,0.0627c0.3575,0.314,0.3593,0.3154,0.5295-0.3063l0.0409-0.06 l-0.0187,0.0663c0.2991,0.1308,0.5892,0.3715,0.8909,0.3752c0.7638,0.0111,0.0437-0.4834,0.2258-0.6727 c0.2095-0.2126,0.3621-0.5216,0.7291-0.5362c0.176-0.007,0.3405-0.0461,0.4843-0.1582l0.1132-0.1622 c0.1085,0.12231-0.0758,0.1079-0.093,0.17171c0.4106,0.0598,0.8208,0.1195,1.2016,0.1748 c0.1303-0.1633,0.1273-0.2898,0.0444-0.4001c-0.1219-0.1615-0.1018-0.2897,0.0811-0.4c0.5532,0.4986,0.5055,0.4632,1.0476-0.0847 c0.3473-0.37389,0.7321-0.7884,1.1192-1.2052c0.1228-0.13499,0.2218-0.38219,0.495-0.2566 c0.115,0.2285-0.0139,0.4662,0.0057,0.6951c0.0186,0.2151,0.2653,0.3292,0.3306,0.2178c0.1918-0.327,0.4325-0.4434,0.7887-0.3894 c-0.0255-0.4214,0.4507-0.5331,0.608-0.8851c0.226-0.4939,0.5721-0.5268,1.0737-0.21021 c0.2312,0.14771,0.3941,0.2375,0.6183,0.01231c0.4159-0.41811,0.9444-0.71101,1.5052-0.8831 c0.4716-0.1431,1.0022-0.0672,1.4286-0.3943c0.0526-0.0407,0.1757-0.0886,0.1757-0.0886c0.3662,0.4738,0.6722,0.0299,0.9718-0.1522 c0.0891,0.2397-0.228,0.4372,0.0396,0.5626c0.1515-0.0109,0.2208-0.0988,0.2476-0.189c0.1376-0.4636,0.7675-0.3624,0.9881-0.7897 c0.0469-0.0883,0.1675,0.3614,0.4539,0.4217c0.3061,0.0677,0.53699,0.0956,0.694-0.2147 c-0.0569-0.027-0.11961-0.0468-0.1703-0.0824c-0.1004-0.0709-0.2235-0.1406-0.1865-0.2855 c0.0096-0.0381,0.1026-0.0886,0.1484-0.08221c0.1379,0.01981,0.233,0.0927,0.2226,0.2468 c-0.004,0.0606,0.0059,0.1219,0.0094,0.1829c0.5777,0.337,0.9937-0.0624,1.3678-0.3462c0.756-0.5858,0.7494-0.624,1.3922,0.0698 c0.0717,0.0775,0.1309,0.16209,0.23109,0.1552c0.5361-0.0448,1.10201,0.0841,1.5742-0.2497 c0.1334-0.0955,0.2344-0.2865,0.4082-0.21539c0.9398,0.41679,1.9621-0.4804,2.81689,0.15479 c0.239,0.18221,0.6701-0.0247,0.9049-0.3528c0.1086-0.1541,0.14761-0.3776,0.3899-0.3995c0.0596,0.6765,0.0426,0.6793,0.582,0.3819 c0.0508-0.0262,0.0887-0.0835,0.1329-0.1265c0.00729,0.09859-0.0019,0.2023,0.0232,0.2939 c0.08559,0.3207,0.2356,0.4312,0.5105,0.1889c-0.0885-0.1258-0.0896-0.2771-0.0804-0.4294 c-0.0056-0.0486-0.0177-0.0972-0.0144-0.1456c0.0009-0.0171,0.0398-0.0328,0.0616-0.0493l0.0624-0.0365l-0.056,0.0453 c-0.025,0.0569-0.0374,0.11629-0.0384,0.1784l0.0888,0.4255c0.3218,0.2812,0.5898,0.4925,1.0134,0.1526 c-0.1646-0.1021-0.3651-0.1642-0.53889-0.27029c-0.1115-0.0663-0.1763-0.1777-0.0511-0.3074 C82.0172,71.1227,82.1529,71.0962,82.2378,71.2145z"/><path d="M65.4609,73.4586c-0.1474,0.1299-0.3143,0.2561-0.2423,0.4814c0.1114,0.1035,0.23351,0.1022,0.3551,0.0299 c0.1897-0.1125,0.2939-0.2851,0.2114-0.4851C65.7297,73.3503,65.5775,73.3558,65.4609,73.4586z"/><path d="M34.5794,92.3596c0.26,0.0857,0.42-0.1589,0.4416-0.5749c-0.1706,0.1104-0.2627,0.1568-0.339,0.2227 C34.5644,92.1091,34.2907,92.2642,34.5794,92.3596z"/><path d="M56.3947,71.2081c-0.0547-0.1745-0.2179-0.1054-0.35-0.0417c-0.1362,0.0659-0.263,0.1604-0.2016,0.31271 c0.064,0.1585,0.2114,0.1153,0.3531,0.0583C56.334,71.458,56.4377,71.3455,56.3947,71.2081z"/><path d="M66.8294,73.4564c0.027,0.0997,0.1166,0.1317,0.2226,0.11311c0.1256-0.0423,0.2485-0.0956,0.1992-0.2563 c-0.0291-0.0949-0.11169-0.148-0.2214-0.1188C66.8945,73.2301,66.7873,73.3027,66.8294,73.4564z"/><path d="M55.2891,71.7611c-0.0379-0.0621-0.1251-0.0522-0.1692,0.0172c-0.0309,0.0485-0.0242,0.1143-0.0338,0.1721 l0.1876-0.0239C55.2807,71.8703,55.3127,71.7999,55.2891,71.7611z"/><path d="M63.68,74.3025c-0.0754,0.0149-0.097,0.0658-0.0678,0.1387c0.0569,0.0139,0.1285,0.0553,0.1675,0.0353 c0.0698-0.036,0.0599-0.1074-0.0091-0.1526C63.7463,74.308,63.7084,74.2968,63.68,74.3025z"/><path d="M34.0609,92.9983c0.0765-0.0303,0.0936-0.088,0.0563-0.1582c-0.0264-0.0116-0.0579-0.0396-0.0782-0.0317 c-0.0737,0.0292-0.0932,0.0898-0.0519,0.15749C33.9997,92.986,34.0414,93.006,34.0609,92.9983z"/><path d="M35.4543,91.4385c0,0,0.025-0.0398,0.0379-0.0617c-0.0235-0.0109-0.0464-0.0303-0.0707-0.0299 c0,0-0.025,0.0397-0.0375,0.0615C35.4073,91.4196,35.43,91.4389,35.4543,91.4385z"/><path d="M84.332,79.318c-0.0621-0.0608-0.0963-0.0495-0.0945,0.0368c0,0,0.0434,0.024,0.0666,0.0361L84.332,79.318z"/><path d="M35.6294,90.3862c0.0116-0.0002,0.0261-0.0409,0.0392-0.0631c-0.0236-0.0116-0.0468-0.0316-0.0716-0.0309 c-0.0114,0.0002-0.0261,0.0408-0.0391,0.0627C35.5815,90.3666,35.6047,90.3869,35.6294,90.3862z"/><path d="M59.9923,75.8509c0.0202,0.0152,0.0402,0.0431,0.0607,0.0424c0.024-0.0004,0.0623-0.0213,0.0698-0.04121 c0.0244-0.0665-0.0106-0.0946-0.0853-0.0668C60.0174,75.793,60.0071,75.8283,59.9923,75.8509z"/><path d="M62.9229,74.6902c-0.0086,0.0136,0.0079,0.0418,0.0132,0.0633c0.0265,0,0.0609,0.0107,0.078-0.0018 c0.0726-0.0528,0.0627-0.0945-0.025-0.1032C62.9686,74.6464,62.9361,74.67,62.9229,74.6902z"/><path d="M53.6242,72.5346l-0.08,0.014l0.0051,0.0817c0.0271-0.0051,0.0729-0.0051,0.0774-0.0158 C53.6369,72.5909,53.6263,72.5616,53.6242,72.5346z"/></g></svg>